<?xml version="1.0" standalone="no"?>
<!DOCTYPE svg PUBLIC "-//W3C//DTD SVG 1.1//EN" "http://www.w3.org/Graphics/SVG/1.1/DTD/svg11.dtd" >
<!--
2013-9-30: Created.
-->
<svg>
<metadata>
Created by iconfont
</metadata>
<defs>

<font id="iconfont" horiz-adv-x="1024" >
  <font-face
    font-family="iconfont"
    font-weight="500"
    font-stretch="normal"
    units-per-em="1024"
    ascent="896"
    descent="-128"
  />
    <missing-glyph />
    
    <glyph glyph-name="youbian" unicode="&#59073;" d="M512 896a512 512 0 1 0 0-1024 512 512 0 0 0 0 1024z m1706.666667-170.666667a341.333333 341.333333 0 1 0 0-682.666666 341.333333 341.333333 0 0 0 0 682.666666z m1365.333333-170.666666a170.666667 170.666667 0 1 0 0-341.333334 170.666667 170.666667 0 0 0 0 341.333334z"  horiz-adv-x="3754" />

    
    <glyph glyph-name="zuobian" unicode="&#59072;" d="M3242.666667 896a512 512 0 1 0 0-1024 512 512 0 0 0 0 1024zM1536 725.333333a341.333333 341.333333 0 1 0 0-682.666666 341.333333 341.333333 0 0 0 0 682.666666zM170.666667 554.666667a170.666667 170.666667 0 1 0 0-341.333334 170.666667 170.666667 0 0 0 0 341.333334z"  horiz-adv-x="3754" />

    
    <glyph glyph-name="qiyong" unicode="&#58966;" d="M512 896a512 512 0 1 1 512-512A512 512 0 0 1 512 896z m0-921.6a409.6 409.6 0 1 0 409.6 409.6 409.6 409.6 0 0 0-409.6-409.6zM716.8 556.032l-256-253.44L328.192 435.2A51.2 51.2 0 0 1 256 363.008l168.448-168.96a51.2 51.2 0 0 1 72.704 0l289.28 289.792A51.2 51.2 0 0 1 716.8 556.032z"  horiz-adv-x="1024" />

    
    <glyph glyph-name="xiazai" unicode="&#59071;" d="M64 485.888a32 32 0 0 0 31.488-26.24l0.512-5.76v-379.328a96 96 0 0 1 86.784-95.552l9.216-0.448h768a96 96 0 0 1 95.552 86.784l0.448 9.216V450.496a32 32 0 0 0 63.488 5.76l0.512-5.76v-375.936a160 160 0 0 0-149.504-159.68l-10.496-0.32H192a160 160 0 0 0-159.68 149.504L32 74.56V453.888a32 32 0 0 0 32 32zM576 864a32 32 0 0 0 31.488-26.24L608 832v-605.184l126.4 126.4a32 32 0 0 0 40.832 3.648l4.416-3.648a32 32 0 0 0 3.712-40.832l-3.712-4.48-180.992-180.992a32 32 0 0 0-40.832-3.712l-4.48 3.712-180.992 180.992a32 32 0 0 0 40.832 48.96l4.48-3.648L544 226.816V832A32 32 0 0 0 576 864z"  horiz-adv-x="1152" />

    
    <glyph glyph-name="fujinzhandian-icon" unicode="&#59069;" d="M1024 896v-640h-486.4V-128h-51.2v384H0V896h1024z m-128-691.2A128 128 0 0 0 1024 76.8c0-47.104-42.6496-115.0464-128-203.776C810.6496-38.1952 768 29.696 768 76.8a128 128 0 0 0 128 128z m0-73.1648a54.8352 54.8352 0 1 1 0-109.6704 54.8352 54.8352 0 0 1 0 109.6704zM972.8 844.8H51.2v-460.8h921.6V844.8zM448 640v-64H128V640h320z"  horiz-adv-x="1024" />

    
    <glyph glyph-name="xiugai-icon1" unicode="&#59070;" d="M832.258113 700.674545L730.024032 802.908626l-51.091443-51.091444 102.182887-102.234081 51.142637 51.091444z m76.944328-21.040665l-128.598904-128.598904L574.906724 756.73179 703.40324 885.330694a36.34762 36.34762 0 0 0 51.4498 0l154.298207-154.298207a36.34762 36.34762 0 0 0 0-51.398607zM36.552395-51.260447h950.771832c20.170369 0 36.552395-17.149933 36.552396-38.292986 0-21.194246-16.382026-38.34418-36.552396-38.344179H36.552395C16.382026-127.897612 0-110.747679 0-89.553433c0 21.143052 16.382026 38.292986 36.552395 38.292986z m484.703194 755.620948l206.976659-206.97666L314.330123 83.53291l-204.877712-40.955065a36.603589 36.603589 0 0 0-43.002818 43.002819l40.955065 204.877712 413.850931 413.902125z"  horiz-adv-x="1024" />

    
    <glyph glyph-name="xingzhuangjiehe" unicode="&#59068;" d="M1024 896v-640h-486.4V-128h-51.2v384H0V896h1024z m-102.4-768v-102.4h102.4v-51.2h-102.4v-102.4h-51.2v102.4h-102.4v51.2h102.4v102.4h51.2z m51.2 716.8H51.2v-460.8h921.6V844.8zM448 640v-64H128V640h320z"  horiz-adv-x="1024" />

    
    <glyph glyph-name="bianjixianlu-" unicode="&#59067;" d="M568.490667 870.4a31.288889 31.288889 0 0 0 5.063111-62.179556l-5.12-0.398222H170.666667a82.488889 82.488889 0 0 1-82.090667-74.524444L88.177778 725.333333v-682.666666a82.488889 82.488889 0 0 1 74.524444-82.090667l7.964445-0.398222h682.666666a82.488889 82.488889 0 0 1 82.090667 74.524444l0.398222 7.964445V438.556444a31.288889 31.288889 0 0 0 62.179556 5.063112l0.398222-5.12V42.666667a145.066667 145.066667 0 0 0-135.509333-144.782223L853.333333-102.4H170.666667a145.066667 145.066667 0 0 0-144.782223 135.509333L25.6 42.666667V725.333333A145.066667 145.066667 0 0 0 161.109333 870.115556L170.666667 870.4h397.824zM768 156.444444a28.444444 28.444444 0 1 0 0-56.888888h-512a28.444444 28.444444 0 1 0 0 56.888888h512z m81.180444 670.606223l80.440889-80.440889a56.888889 56.888889 0 0 0 4.437334-75.491556l-4.551111-5.12-403.797334-400.213333a56.888889 56.888889 0 0 0-40.049778-16.497778H405.048889a56.888889 56.888889 0 0 0-56.888889 56.888889V386.56a56.888889 56.888889 0 0 0 16.839111 40.391111l403.911111 400.327111a56.888889 56.888889 0 0 0 80.270222-0.170666z m-40.220444-40.220445l-403.911111-400.327111v-80.270222h80.611555l403.740445 400.156444-80.440889 80.440889z"  horiz-adv-x="1024" />

    
    <glyph glyph-name="xianluweihu-copy" unicode="&#61273;" d="M214.27871076 658.1089111599999l39.44401883-56.30228465 5.5113555-7.24040878a121.57402894 121.57402894 0 0 1 198.62494686 139.08068974l-4.97102697 7.56460567-39.33595238 56.41034987a243.2561243 243.2561243 0 0 0 205.7032572-400.65396706c1.62098685-1.8371185 3.24197369-3.83633545 4.70086209-5.94361882l209.16136376-298.80194632a60.78701507 60.78701507 0 1 0-99.58263891-69.70244393l-209.21539455 298.80194754a61.38137683 61.38137683 0 0 0-3.94440189 6.48394737A243.14805787 243.14805787 0 0 0 214.27871076 658.1089111599999z m32.68990657-125.89666213l1.45888841-10.10415237a189.11515626 189.11515626 0 0 1 252.81994691-143.78155182 54.03290161 54.03290161 0 0 0 63.65075866-19.99217307l3.72827022-6.05168527 209.16136254-298.80194632a6.75411225 6.75411225 0 0 1 11.9953041 5.8355536l-0.91855986 1.94518373-209.43152742 299.07211119a54.14096805 54.14096805 0 0 0-1.18872354 71.86375931 189.22322147 189.22322147 0 0 1-48.62961132 286.75261023l-8.64526396 4.64682886 1.94518372-6.32184892a175.76902898 175.76902898 0 0 0-61.00314552-183.71186598l-7.88880377-5.94361881a175.33676566 175.33676566 0 0 0-202.40725029 1.08065708l-4.64682888 3.51213856z"  horiz-adv-x="1024" />

    
    <glyph glyph-name="shezhi" unicode="&#58979;" d="M616.59648 862.065135C616.59648 880.806844 601.403321 896 582.66165 896L441.340822 896C422.59915 896 407.405992 880.806844 407.405992 862.065135L407.405992 759.387229 435.230543 792.767444C363.206268 779.583199 296.479426 746.947408 241.29995 698.693005L284.994913 699.520413 207.711691 762.103095C193.146703 773.897634 171.777942 771.651697 159.983404 757.086654L71.047415 647.259759C59.252877 632.694715 61.498792 611.326053 76.063779 599.531513L154.771068 535.795557 146.094963 577.968306C114.150753 517.251558 97.192077 449.240885 97.192077 378.805308 97.192077 372.840598 97.313721 366.889583 97.55595 360.954859L131.462709 362.339702 123.828966 395.404818 26.309914 372.890783C8.04864 368.674816-3.337534 350.453343 0.878521 332.191984L32.668778 194.493218C36.884657 176.231858 55.106207 164.845819 73.367658 169.061786L170.001655 191.371506 131.136441 211.163503C160.367228 142.384236 207.214698 82.748543 266.430499 38.613225L256.209567 80.698048 211.737777-10.482453C203.521942-27.327389 210.517274-47.643148 227.362251-55.858972L354.380447-117.809938C371.225423-126.025762 391.54123-119.030486 399.757065-102.18555L444.452193-10.547064 413.951647 4.329001 405.305203-28.485856C438.58997-37.256053 473.012789-41.737419 507.982566-41.737419 545.680772-41.737419 582.736684-36.52929 618.405429-26.361644L609.102566 6.273192 578.602019-8.602875 624.245407-102.18555C632.461241-119.030486 652.777048-126.025762 669.622025-117.809938L796.640221-55.858972C813.485197-47.643148 820.48053-27.327389 812.264695-10.482453L765.618141 85.157002 755.922097 43.471409C812.677473 87.514107 857.494422 145.983926 885.604458 213.001551L846.677274 193.062294 950.634814 169.061786C968.896265 164.845819 987.117815 176.231858 991.333694 194.493218L1023.12395 332.191984C1027.340006 350.453343 1015.953832 368.674816 997.692557 372.890783L892.206963 397.244051 884.573219 364.178933 918.485804 362.949371C918.67701 368.222709 918.772877 373.508627 918.772877 378.805308 918.772877 447.300336 902.737214 513.514747 872.451178 572.982187L863.567978 531.209444 947.938692 599.531513C962.50368 611.326053 964.749594 632.694715 952.955057 647.259759L864.019068 757.086654C852.22453 771.651697 830.855768 773.897634 816.290781 762.103095L734.807393 696.119068 778.843277 694.989418C725.148601 743.232795 660.048684 776.512343 589.515917 791.058457L616.59648 757.823009 616.59648 862.065135ZM575.807382 724.587561C634.44533 712.494573 688.652359 684.783489 733.483255 644.50403 745.889721 633.357065 764.557418 632.878186 777.519139 643.374382L859.002527 709.358408 811.274417 714.37485 900.210406 604.547955 905.226946 652.276199 820.856055 583.95413C808.406157 573.87228 804.702632 556.456879 811.973032 542.181387 837.42208 492.211482 850.90304 436.545368 850.90304 378.805308 850.90304 374.328592 850.822179 369.862518 850.660634 365.408496 850.071481 349.156984 861.094135 334.772014 876.939652 331.113818L982.425247 306.76055 956.993677 347.459351 925.203421 209.760586 965.902301 235.192018 861.944585 259.192528C845.84501 262.909419 829.408397 254.490315 823.017401 239.253271 799.42709 183.011358 761.835873 133.968451 714.313269 97.090461 701.621848 87.241836 697.575106 69.843504 704.617225 55.404871L751.263779-40.234584 766.888077 5.141937 639.869881-56.809029 685.246323-72.433419 639.602935 21.149256C632.392563 35.932977 615.61803 43.417152 599.799702 38.908028 570.165319 30.460474 539.370284 26.132311 507.982566 26.132311 478.864066 26.132311 450.2528 29.857091 422.598091 37.143859 406.940425 41.269478 390.549363 33.758325 383.451277 19.205067L338.756149-72.433419 384.13259-56.809029 257.114394 5.141937 272.738692-40.234584 317.210483 50.945917C324.361357 65.607429 320.068679 83.282418 306.98955 93.030741 257.418946 129.977215 218.128596 179.992864 193.599206 237.709741 187.160188 252.860958 170.774952 261.205052 154.734168 257.501738L58.100171 235.192018 98.799051 209.760586 67.008794 347.459351 41.577225 306.76055 139.096276 329.274585C154.998643 332.945945 166.035244 347.417436 165.369291 363.724544 165.164491 368.736595 165.061914 373.76419 165.061914 378.805308 165.061914 438.178165 179.317937 495.350113 206.159095 546.367492 213.696971 560.694936 210.064419 578.351932 197.48299 588.540241L118.775526 652.276199 123.792066 604.547955 212.728055 714.37485 164.999945 709.358408 242.28299 646.775727C255.110886 636.387967 273.552596 636.737179 285.977953 647.603135 332.03659 687.881315 387.580116 715.047452 447.451101 726.007014 463.568331 728.957305 475.275652 743.002269 475.275652 759.387229L475.275652 862.065135 441.340822 828.130271 582.66165 828.130271 548.726819 862.065135 548.726819 757.823009C548.726819 741.723211 560.039548 727.839415 575.807382 724.587561ZM730.345048 378.805308C730.345048 504.114531 630.986681 606.044104 507.982566 606.044104 384.978273 606.044104 285.619906 504.114531 285.619906 378.805308 285.619906 253.496085 384.978273 151.566513 507.982566 151.566513 630.986681 151.566513 730.345048 253.496085 730.345048 378.805308ZM353.489567 378.805308C353.489567 467.013711 422.85515 538.174374 507.982566 538.174374 593.109804 538.174374 662.475388 467.013711 662.475388 378.805308 662.475388 290.596905 593.109804 219.436242 507.982566 219.436242 422.85515 219.436242 353.489567 290.596905 353.489567 378.805308Z"  horiz-adv-x="1025" />

    
    <glyph glyph-name="single_arrow" unicode="&#58915;" d="M960 320v2q-0.06 1-0.15 2v0.27c-0.06 0.56-0.13 1.13-0.21 1.7l-0.06 0.35c-0.09 0.54-0.18 1.07-0.29 1.61 0 0.11-0.05 0.22-0.07 0.34-0.12 0.53-0.24 1.07-0.37 1.6 0 0.09 0 0.18-0.08 0.28-0.14 0.55-0.3 1.09-0.46 1.64l-0.06 0.17c-0.18 0.58-0.37 1.15-0.58 1.72a39.6 39.6 0 0 1-6.69 11.65v0.06c-0.39 0.47-0.78 0.93-1.19 1.38-0.22 0.24-0.45 0.47-0.67 0.7s-0.42 0.45-0.64 0.67L668.14 628.4300000000001a39.88 39.88 0 0 1-56.39 0l-0.18-0.18a39.88 39.88 0 0 1 0-56.39L823.43 360H104a40 40 0 0 1 0-80h817.87A40 40 0 0 1 960 318.11v1.12 0.77z"  horiz-adv-x="1024" />

    
    <glyph glyph-name="1bei" unicode="&#59062;" d="M578.782609 873.73913c298.206609 0 541.651478-234.585043 555.853913-529.274434 0.445217-1.602783 0.667826-3.250087 0.667826-4.986435l-0.311652-3.561739a554.473739 554.473739 0 0 0-144.873739-393.572174l-6.678261-7.301565-811.853913 2.671304-6.63374 7.390609A554.429217 554.429217 0 0 0 22.26087 317.217391C22.26087 624.595478 271.404522 873.73913 578.782609 873.73913zM980.23513 317.217391a22.26087 22.26087 0 0 0-4.006956 44.165566l4.006956 0.356173h108.633044c-21.904696 254.619826-230.177391 455.94713-487.780174 467.033044L601.043478 716.132174a22.26087 22.26087 0 0 0-44.165565-4.006957l-0.356174 4.006957V828.772174C298.918957 817.730783 90.601739 616.403478 68.697043 361.73913L181.470609 361.73913a22.26087 22.26087 0 0 0 4.006956-44.165565l-4.006956-0.356174H66.782609c0-128.222609 47.282087-248.965565 131.294608-342.372174l-6.455652 7.390609 772.006957-2.582261 4.051478 4.541218a509.640348 509.640348 0 0 1 122.88 316.905739L1090.782609 317.217391h-110.547479z m-721.474782 26.490435c212.947478-41.850435 334.002087-70.255304 363.208348-85.125565a89.043478 89.043478 0 0 0-80.806957-158.675478c-29.250783 14.870261-123.325217 96.166957-282.401391 243.801043z"  horiz-adv-x="1157" />

    
    <glyph glyph-name="2bei" unicode="&#59063;" d="M578.782609 873.73913c298.206609 0 541.651478-234.585043 555.853913-529.274434 0.445217-1.602783 0.667826-3.250087 0.667826-4.986435l-0.311652-3.561739a554.473739 554.473739 0 0 0-144.873739-393.572174l-6.678261-7.301565-811.853913 2.671304-6.63374 7.390609A554.429217 554.429217 0 0 0 22.26087 317.217391C22.26087 624.595478 271.404522 873.73913 578.782609 873.73913zM980.23513 317.217391a22.26087 22.26087 0 0 0-4.006956 44.165566l4.006956 0.356173h108.633044c-21.904696 254.619826-230.177391 455.94713-487.780174 467.033044L601.043478 716.132174a22.26087 22.26087 0 0 0-44.165565-4.006957l-0.356174 4.006957V828.772174C298.918957 817.730783 90.601739 616.403478 68.697043 361.73913L181.470609 361.73913a22.26087 22.26087 0 0 0 4.006956-44.165565l-4.006956-0.356174H66.782609c0-128.222609 47.282087-248.965565 131.294608-342.372174l-6.455652 7.390609 772.006957-2.582261 4.051478 4.541218a509.640348 509.640348 0 0 1 122.88 316.905739L1090.782609 317.217391h-110.547479zM577.446957 539.024696c59.347478-208.762435 89.043478-329.549913 89.043478-362.317913a89.043478 89.043478 0 1 0-178.086957 0c0 32.768 29.696 153.555478 89.043479 362.317913z"  horiz-adv-x="1157" />

    
    <glyph glyph-name="bofang1" unicode="&#59064;" d="M839.821767 326.259926L219.585434-111.769522c-29.64028-25.544532-72.96898-20.370956-96.681204 11.532764a77.603642 77.603642 0 0 0-15.089598 46.238837V822.007083C107.814632 862.856778 138.640524 896 176.633974 896c15.628511 0 30.718108-5.71249 42.95146-16.167425l620.236333-438.029448c29.64028-25.544532 34.490508-72.106718 10.724392-104.010437a71.675586 71.675586 0 0 0-10.778284-11.532764z"  horiz-adv-x="1024" />

    
    <glyph glyph-name="3bei" unicode="&#59065;" d="M578.782609 873.73913c298.206609 0 541.651478-234.585043 555.853913-529.274434 0.445217-1.602783 0.667826-3.250087 0.667826-4.986435l-0.311652-3.561739a554.473739 554.473739 0 0 0-144.873739-393.572174l-6.678261-7.301565-811.853913 2.671304-6.63374 7.390609A554.429217 554.429217 0 0 0 22.26087 317.217391C22.26087 624.595478 271.404522 873.73913 578.782609 873.73913zM980.23513 317.217391a22.26087 22.26087 0 0 0-4.006956 44.165566l4.006956 0.356173h108.633044c-21.904696 254.619826-230.177391 455.94713-487.780174 467.033044L601.043478 716.132174a22.26087 22.26087 0 0 0-44.165565-4.006957l-0.356174 4.006957V828.772174C298.918957 817.730783 90.601739 616.403478 68.697043 361.73913L181.470609 361.73913a22.26087 22.26087 0 0 0 4.006956-44.165565l-4.006956-0.356174H66.782609c0-128.222609 47.282087-248.965565 131.294608-342.372174l-6.455652 7.390609 772.006957-2.582261 4.051478 4.541218a509.640348 509.640348 0 0 1 122.88 316.905739L1090.782609 317.217391h-110.547479z m-79.560347 15.849739c-164.062609-142.024348-260.986435-219.937391-290.726957-233.783652a89.043478 89.043478 0 1 0-75.241739 161.391305c29.696 13.846261 151.730087 37.977043 365.968696 72.392347z"  horiz-adv-x="1157" />

    
    <glyph glyph-name="zhongbo" unicode="&#59066;" d="M563.199488 890.409016l197.476425-131.582684a32.921271 32.921271 0 0 0 0-54.783452l-197.527624-131.582685A32.921271 32.921271 0 0 0 512 599.749523v153.598464c-156.670433-1.228788-303.356966-97.791022-360.085999-252.720673-73.01047-199.268407 30.361296-419.528605 230.909691-492.02708 200.445996-72.549675 422.139779 30.207698 495.099049 229.373706 5.631944 15.308647 10.239898 30.770892 13.823862 46.386736l3.99356 19.302207a38.706813 38.706813 0 0 0 51.609084 31.846082 38.297217 38.297217 0 0 0 23.090969-49.253908c-4.095959-25.087749-10.854291-49.919501-19.865402-74.495255-87.551124-239.101609-353.634864-362.338777-594.221258-275.350846C115.767162 23.550484-8.289197 287.842242 79.364326 526.943851 147.408446 713.00279 323.739483 828.918431 512 830.147219V863.01729c0 26.316537 29.286107 41.98358 51.199488 27.391726z"  horiz-adv-x="1024" />

    
    <glyph glyph-name="buzhundian-icon" unicode="&#59060;" d="M575.51603 429.021186l158.390101 158.390101a31.998 31.998 0 0 0 45.245172-45.245172L620.761202 383.776014l158.390101-158.390101a31.998 31.998 0 1 0-45.245172-45.245172L575.51603 338.530842l-158.3901-158.390101a31.998 31.998 0 0 0-45.245173 45.245172l158.390101 158.390101L371.816761 542.166115a31.998 31.998 0 0 0 45.245173 45.245172l158.3901-158.390101zM575.900006-63.876008A447.972002 447.972002 0 1 1 575.900006 831.940004a447.972002 447.972002 0 0 1 0-895.816012z m0-63.996A511.904006 511.904006 0 1 0 575.900006 895.936004a511.904006 511.904006 0 0 0 0-1023.808012z"  horiz-adv-x="1087" />

    
    <glyph glyph-name="zhundian-icon" unicode="&#59061;" d="M842.699331 611.473783a31.998 31.998 0 0 0 10.751328-39.549528l-2.87982-4.991688-292.653709-417.893882a31.998 31.998 0 0 0-39.549528-10.751328l-4.991688 2.87982-207.219049 145.078933a31.998 31.998 0 0 0 31.742016 55.292544l4.991688-2.87982 180.980689-126.712081 274.222861 391.655522a31.998 31.998 0 0 0 39.613524 10.751328l4.991688-2.87982zM575.900006-63.876008A447.972002 447.972002 0 1 1 575.900006 831.940004a447.972002 447.972002 0 0 1 0-895.816012z m0-63.996A511.904006 511.904006 0 1 0 575.900006 895.936004a511.904006 511.904006 0 0 0 0-1023.808012z"  horiz-adv-x="1087" />

    
    <glyph glyph-name="ai-video" unicode="&#59059;" d="M647.725 55.103c0 0 93.091 0 93.091 93.091v465.453c0 93.091-93.091 93.091-93.091 93.091h-554.634c0 0-93.091 0-93.091-93.091v-465.453c0-93.091 93.091-93.091 93.091-93.091h554.634zM795.041 524.885v-289.605l228.956-180.177-0 651.634-228.956-181.852z"  horiz-adv-x="1024" />

    
    <glyph glyph-name="bofang" unicode="&#59058;" d="M102.425742 793.606435v-819.148516l614.361387 409.574258zM153.622524 793.606435v-819.148516l614.361387 409.574258zM259.599863 880.128997V61.492449l619.481066 405.478515zM261.135767 706.571906l-1.535904-818.636549L875.497154 296.997647zM204.819306 793.606435m-102.393564 0a102.393565 102.393565 0 1 1 204.787129 0 102.393565 102.393565 0 1 1-204.787129 0ZM819.180694 486.425742c-56.316461 0-102.393565-46.077104-102.393565-102.393565s46.077104-100.345693 102.393565-102.393564c57.852364-2.047871 102.905532 45.053168 102.393564 102.393564-0.511968 56.316461-46.077104 102.393565-102.393564 102.393565zM204.819306 76.851483c-56.316461 0-102.393565-46.077104-102.393564-102.393564s46.077104-100.345693 102.393564-102.393565c53.756621-2.047871 100.857661 45.053168 102.393565 102.393565 1.535903 56.316461-46.077104 102.393565-102.393565 102.393564z"  horiz-adv-x="1024" />

    
    <glyph glyph-name="xingxing" unicode="&#58963;" d="M949.12 509.408c-4.864 15.008-17.856 25.952-33.44 28.192l-256.992 37.344-114.944 232.896c-6.976 14.144-21.376 23.104-37.152 23.104-15.776 0-30.176-8.96-37.152-23.104l-114.944-232.896L97.472 537.6c-15.616-2.272-28.576-13.184-33.44-28.192s-0.8-31.456 10.496-42.464l185.984-181.28-43.904-255.968c-2.656-15.552 3.712-31.264 16.48-40.544 12.768-9.28 29.664-10.496 43.648-3.136l229.888 120.864 229.856-120.864c6.048-3.168 12.672-4.768 19.264-4.768 8.576 0 17.152 2.656 24.352 7.904 12.768 9.28 19.136 24.992 16.48 40.544l-43.904 255.968 185.984 181.28C949.92 477.952 953.984 494.4 949.12 509.408z"  horiz-adv-x="1024" />

    
    <glyph glyph-name="tongji-guan-icon" unicode="&#59056;" d="M581.818182 872.727273v-465.454546h465.454545v-23.272727c0-269.917091-218.810182-488.727273-488.727272-488.727273S69.818182 114.082909 69.818182 384 288.628364 872.727273 558.545455 872.727273h23.272727z m-46.545455-47.150546l-14.242909-0.930909C294.353455 805.515636 116.363636 615.517091 116.363636 384a442.181818 442.181818 0 0 1 442.181819-442.181818c235.799273 0 428.450909 184.552727 441.483636 417.047273l0.046545 1.861818H535.272727V825.576727zM636.136727 872.727273A411.136 411.136 0 0 0 1047.272727 461.591273v-23.272728h-434.408727V872.727273z m23.226182-47.243637v-340.619636h340.619636l-0.884363 11.170909a364.730182 364.730182 0 0 1-328.517818 328.517818l-11.217455 0.930909z"  horiz-adv-x="1070" />

    
    <glyph glyph-name="tongji-kai-icon" unicode="&#59057;" d="M581.818182 872.727273v-465.454546h465.454545v-23.272727c0-269.917091-218.810182-488.727273-488.727272-488.727273S69.818182 114.082909 69.818182 384 288.628364 872.727273 558.545455 872.727273h23.272727z m-46.545455-47.150546l-14.242909-0.930909C294.353455 805.515636 116.363636 615.517091 116.363636 384a442.181818 442.181818 0 0 1 442.181819-442.181818c235.799273 0 428.450909 184.552727 441.483636 417.047273l0.046545 1.861818H535.272727V825.576727zM636.136727 849.454545A387.863273 387.863273 0 0 0 1024 461.591273h-387.863273z"  horiz-adv-x="1070" />

    
    <glyph glyph-name="shenhejilu-icon" unicode="&#59055;" d="M744.727273 872.727273a116.363636 116.363636 0 0 0 116.130909-108.730182L861.090909 756.363636v-375.016727a23.272727 23.272727 0 0 0-46.173091-4.189091l-0.372363 4.189091V756.363636a69.818182 69.818182 0 0 1-63.115637 69.492364L744.727273 826.181818H186.181818a69.818182 69.818182 0 0 1-69.492363-63.115636L116.363636 756.363636v-744.727272a69.818182 69.818182 0 0 1 63.115637-69.492364L186.181818-58.181818h373.806546a23.272727 23.272727 0 0 0 4.189091-46.173091l-4.189091-0.372364H186.181818a116.363636 116.363636 0 0 0-116.130909 108.730182L69.818182 11.636364V756.363636A116.363636 116.363636 0 0 0 178.548364 872.494545L186.181818 872.727273h558.545455zM232.727273 570.181818m23.272727 0l418.909091 0q23.272727 0 23.272727-23.272727l0 0q0-23.272727-23.272727-23.272727l-418.909091 0q-23.272727 0-23.272727 23.272727l0 0q0 23.272727 23.272727 23.272727ZM791.272727 314.181818a209.454545 209.454545 0 1 1 0-418.909091 209.454545 209.454545 0 0 1 0 418.909091z m0-46.545454a162.909091 162.909091 0 1 0 0-325.818182 162.909091 162.909091 0 0 0 0 325.818182zM791.272727 221.090909a23.272727 23.272727 0 0 0 22.900364-19.083636l0.372364-4.189091v-69.818182H884.363636a23.272727 23.272727 0 0 0 22.900364-19.083636l0.372364-4.189091a23.272727 23.272727 0 0 0-19.083637-22.900364L884.363636 81.454545h-93.090909a23.272727 23.272727 0 0 0-22.900363 19.083637L768 104.727273v93.090909a23.272727 23.272727 0 0 0 23.272727 23.272727zM232.727273 290.909091m23.272727 0l279.272727 0q23.272727 0 23.272728-23.272727l0 0q0-23.272727-23.272728-23.272728l-279.272727 0q-23.272727 0-23.272727 23.272728l0 0q0 23.272727 23.272727 23.272727Z"  horiz-adv-x="1024" />

    
    <glyph glyph-name="shengyin" unicode="&#59011;" d="M533.1456 844.8c10.8032 0 19.456 0 28.4672-5.632l17.2544-15.9744c4.096-6.2976 8.5504-14.4384 8.5504-24.7808V-70.144c0-11.264-5.7344-22.0672-13.568-29.952a50.6368 50.6368 0 0 0-19.7632-13.4144c-13.6704-4.9152-25.7024-2.048-38.7072 3.1744-12.544 5.12-22.784 15.5136-32.768 24.4736-9.3696 8.448-19.8144 15.872-29.0816 24.4736l-8.3456 7.3728c-9.728 9.0624-20.992 16.5376-30.4128 25.856l-23.04 19.5072c-15.616 12.1344-30.208 25.856-45.2096 38.8096l-26.3168 22.5792-0.512 0.4096L292.352 76.8c-1.536 1.536-1.8944 1.5872-3.4816 2.9696l-2.816 2.7136c-2.6624 2.3552-3.9424 2.9184-6.5536 5.4272-2.304 2.2016-4.096 3.3792-6.5024 5.5296l-12.8 11.264c-11.52 9.3184-8.704 11.776-24.1664 11.776l-131.584-0.1024c-7.168 0.0512-4.7104 1.024-9.6256 2.4064-2.5088 0.7168-2.816 0.2048-5.2736 1.1264a59.5456 59.5456 0 0 0-18.9952 12.3904l-14.4384 19.7632A44.2368 44.2368 0 0 0 51.2 170.24V549.7344l1.9968 11.008c2.8672 7.68 2.8672 8.96 7.0144 16.0768a58.88 58.88 0 0 0 23.0912 21.248c1.8432 1.024 1.28 1.024 3.584 2.048 24.7808 11.008 71.2192 6.1952 102.2976 6.1952h48.7424c8.1408 0 8.6528-0.6144 14.336 4.096l15.7696 13.824c4.5056 4.1984 8.7552 7.5776 13.2096 11.7248l52.736 47.0016 0.4608 0.4608 10.752 9.5232c2.6112 2.4064 4.1472 4.1472 6.7584 6.144l26.0096 23.04c1.536 1.3824 2.1504 1.7408 3.4816 2.9184l6.7584 6.144 0.512 0.512L474.112 806.912a61.952 61.952 0 0 0 1.9456 1.7408l14.6432 13.056c1.7408 1.6896 1.3312 1.1264 3.072 2.5088 2.4576 2.048 3.6864 3.7376 6.2464 5.6832 2.1504 1.6384 4.352 3.4816 6.9632 5.12l0.5632 0.3072 5.376 2.9184c1.0752 0.4096 0.5632 0.0512 2.048 0.7168 2.7648 1.2288 1.5872 1.3312 4.096 2.3552 2.4576 0.9216 2.048 0.3584 4.608 0.9216 3.328 0.768 4.7104 2.5088 9.472 2.5088z m133.3248-111.3088h4.608l17.3056-3.9424c2.56-0.768 4.7104-1.8432 7.8336-2.3552l15.9744-4.2496c3.072-1.28 4.5056-1.536 7.5264-2.6112 2.56-0.9216 4.352-1.6896 7.5264-2.6624 3.1232-0.9216 4.096-1.6384 7.3216-2.7648l21.9648-9.4208c12.1344-5.4784 23.296-12.1856 34.9696-18.5344 8.6016-4.6592 16.5888-11.264 25.0368-16.4864l23.296-18.2784 67.5328-74.752 1.1264-1.6384 1.8432-2.7648 12.032-19.456c1.024-1.6896 0.9216-1.792 1.8944-3.6352l12.1344-23.04a40.8064 40.8064 0 0 0 2.4576-4.864l3.9424-9.984 4.7616-10.9568c5.3248-12.3904 8.2944-26.5728 11.4176-33.9968 1.3312-3.1232 1.2288-4.352 1.9968-8.192l3.9424-16.384c1.8944-5.0176 2.0992-10.9568 3.4816-16.896a409.6 409.6 0 0 0 4.4032-46.592v-28.7744c0-20.48-2.048-22.5792-3.584-38.1952-1.4336-15.1552-3.84-21.4016-6.144-34.6112l-3.072-12.6976c-0.8192-3.6352-0.3072-1.4336-1.1776-3.4304-1.3312-3.2256-1.2288-4.6592-2.3552-7.8336l-5.0176-15.36c-0.8704-3.072-1.6384-4.352-2.7648-7.3728-0.3072-0.7168-0.512-1.536-0.7168-2.048l-1.8944-3.6864-0.3072-0.6144c-4.5568-11.008-8.9088-22.8864-15.0016-33.1264l-8.704-16.2304c-1.536-2.6624-2.3552-3.6864-4.0448-6.144l-32.6656-45.9264-0.4608-0.512a75.9296 75.9296 0 0 1-0.8704-0.9216c-6.3488-7.5264-12.3392-15.36-19.5584-22.016l-1.4336-1.3312c-11.9808-11.008-23.5008-22.1184-36.4544-31.8976l-66.7648-41.216a237.568 237.568 0 0 0-31.6928-13.5168l-7.5776-2.56c-3.2256-1.1264-4.608-1.024-7.68-2.4064-10.3936-4.5056-21.7088-6.0928-32.1536-8.448-3.6864-0.8192-4.3008-2.3552-7.7312-2.3552-14.0288 0-19.3024-0.7168-30.1568 10.3936a21.1456 21.1456 0 0 0-5.5296 8.3456c-4.352 13.4656-3.6864 9.6256-0.6144 21.5552 4.4544 17.3056 19.1488 20.2752 32.256 23.1936 3.5328 0.768 3.4816 1.6384 6.912 2.2528 3.9424 0.6656 4.9152 0.4096 8.3968 1.6896l53.8624 20.8896c1.6384 0.8704 1.4336 0.9728 2.8672 1.7408l5.9904 3.1744c1.5872 1.024 1.6384 0.8192 3.072 1.536l11.776 6.7072c15.2576 9.216 23.9616 16.9984 37.2736 27.3408 1.8432 1.4848 3.4304 2.4064 5.1712 4.096l32.4096 33.1776c7.68 10.0864 16.7936 20.1728 23.3984 31.1296l10.752 17.92c7.2704 14.7456 15.7696 29.1328 20.6336 45.056l6.7584 21.0432c2.048 6.6048 4.9152 15.104 5.632 22.1696 0.6656 7.2192 2.4064 7.168 2.7648 15.7184 0.256 5.8368 2.4064 9.9328 2.7648 15.8208l0.8704 48.2304a114.688 114.688 0 0 1-2.4576 26.2656c-1.28 5.7856-0.2048 11.6224-1.8432 16.7424l-11.9296 44.544-21.6576 48.64-1.536 3.072-19.5584 30.4128-0.4096 0.512-18.9952 23.552c-1.6896 1.792-2.9696 2.816-4.5056 4.7104l-11.7248 12.288-0.4608 0.512-20.6336 18.0736-1.024 0.8192-1.536 1.28-0.512 0.4096-12.032 9.216a52.224 52.224 0 0 0-0.5632 0.3072c-15.6672 10.3424-31.232 21.0432-48.5376 28.1088l-33.792 13.1584c-2.3552 0.8192-0.512 0.4096-3.2256 1.4336l-18.432 4.608c-3.1744 0.6656-4.608 1.8944-7.68 2.4576-4.1472 0.768-3.84 0.1024-7.68 1.536-9.6256 3.6352-15.36 7.168-20.8896 16.0256-1.6384 2.6624-0.512 0.0512-1.4336 3.1744-1.4848 4.608-2.8672 8.3968-2.8672 13.824 0 6.144 4.9152 14.7968 8.96 18.8416a30.72 30.72 0 0 0 7.68 6.144c8.704 4.608 9.3696 3.7888 20.1728 3.7888z m24.7808-206.9504h4.7104c10.752 0 37.632-20.5824 47.5648-29.0304l16.384-16.8448 27.648-43.5712c2.56-4.9152 2.9696-8.96 5.12-14.336l2.56-6.7072c0.768-3.0208 0.3584-1.4848 1.1264-3.4816 1.28-3.4304 1.2288-8.2944 2.0992-11.776 0.8192-3.2256 2.048-3.6864 2.304-7.8848 0.256-3.6352 0.3584-6.0928 0.7168-8.6016 1.9456-15.36 1.536-18.944 0.3072-34.1504-0.3584-4.1984-0.6144-13.4656-1.536-16.9984l-14.08-44.2368c-13.9776-24.832-5.3248-11.4688-21.76-34.6624l-15.1552-17.2032a163.2256 163.2256 0 0 0-23.808-19.5584l-6.3488-3.84c-2.048-1.2288-3.84-2.56-5.632-3.584l-11.8272-6.6048c-5.2736-1.8944-10.9568-1.1776-16.7424-0.8192-4.864 0.3584-3.3792 0.512-6.912 2.304a31.7952 31.7952 0 0 0-14.6432 14.0288l-4.1984 14.336c0 5.4272 3.9424 15.1552 7.5776 19.3024l44.9536 35.328c2.4064 2.4576 3.8912 5.0176 6.144 7.7312 5.12 6.2976 8.704 13.824 12.3904 20.9408l5.4784 14.848c2.9184 10.7008 5.3248 21.8624 5.3248 33.5872 0 18.944-6.656 41.472-16.2304 57.856l-3.1744 5.12-0.8192 1.0752-16.4864 19.6096c-6.7072 6.5536-15.1552 11.6736-23.1424 16.5376l-14.9504 11.776a33.28 33.28 0 0 0-5.632 13.824c-0.4096 1.6384-1.4336 3.8912-1.4336 5.0688l2.9696 11.8272 2.048 3.584 0.3072 0.512 2.9184 4.5056a23.7056 23.7056 0 0 0 8.192 6.656c7.2192 4.096 11.8272 3.5328 20.3776 3.5328z"  horiz-adv-x="1024" />

    
    <glyph glyph-name="jingyin" unicode="&#59012;" d="M533.1456 844.8c10.8032 0 19.456 0 28.4672-5.632l17.2544-15.9744c4.096-6.2976 8.5504-14.4384 8.5504-24.7808V-70.144c0-11.264-5.7344-22.0672-13.568-29.952a50.6368 50.6368 0 0 0-19.7632-13.4144c-13.6704-4.9152-25.7024-2.048-38.7072 3.1744-12.544 5.12-22.784 15.5136-32.768 24.4736-9.3696 8.448-19.8144 15.872-29.0816 24.4736l-8.3456 7.3728c-9.728 9.0624-20.992 16.5376-30.4128 25.856l-23.04 19.5072c-15.616 12.1344-30.208 25.856-45.2096 38.8096l-26.3168 22.5792-0.512 0.4096L292.352 76.8c-1.536 1.536-1.8944 1.5872-3.4816 2.9696l-2.816 2.7136c-2.6624 2.3552-3.9424 2.9184-6.5536 5.4272-2.304 2.2016-4.096 3.3792-6.5024 5.5296l-12.8 11.264c-11.52 9.3184-8.704 11.776-24.1664 11.776l-131.584-0.1024c-7.168 0.0512-4.7104 1.024-9.6256 2.4064-2.5088 0.7168-2.816 0.2048-5.2736 1.1264a59.5456 59.5456 0 0 0-18.9952 12.3904l-14.4384 19.7632A44.2368 44.2368 0 0 0 51.2 170.24V549.7344l1.9968 11.008c2.8672 7.68 2.8672 8.96 7.0144 16.0768a58.88 58.88 0 0 0 23.0912 21.248c1.8432 1.024 1.28 1.024 3.584 2.048 24.7808 11.008 71.2192 6.1952 102.2976 6.1952h48.7424c8.1408 0 8.6528-0.6144 14.336 4.096l15.7696 13.824c4.5056 4.1984 8.7552 7.5776 13.2096 11.7248l52.736 47.0016 0.4608 0.4608 10.752 9.5232c2.6112 2.4064 4.1472 4.1472 6.7584 6.144l26.0096 23.04c1.536 1.3824 2.1504 1.7408 3.4816 2.9184l6.7584 6.144 0.512 0.512L474.112 806.912a61.952 61.952 0 0 0 1.9456 1.7408l14.6432 13.056c1.7408 1.6896 1.3312 1.1264 3.072 2.5088 2.4576 2.048 3.6864 3.7376 6.2464 5.6832 2.1504 1.6384 4.352 3.4816 6.9632 5.12l0.5632 0.3072 5.376 2.9184c1.0752 0.4096 0.5632 0.0512 2.048 0.7168 2.7648 1.2288 1.5872 1.3312 4.096 2.3552 2.4576 0.9216 2.048 0.3584 4.608 0.9216 3.328 0.768 4.7104 2.5088 9.472 2.5088z"  horiz-adv-x="1024" />

    
    <glyph glyph-name="-wuxian-" unicode="&#58904;" d="M622.004443 799.807045c194.335766 0 391.271342-71.169787 539.785465-219.358933 18.848619-18.848619 49.071406-18.848619 67.920025 0 9.099334 9.099334 14.298953 21.123453 14.298953 34.122501 0 12.674072-5.199619 25.023167-14.298953 34.1225C1062.672168 815.730879 841.038401 896 622.004443 896S181.336719 815.405903 14.298953 648.693113C5.199619 639.5937799999999 0 627.56966 0 614.570613c0-12.674072 5.199619-25.023167 14.298953-34.122501 18.848619-18.848619 49.396382-18.848619 67.920025 0 148.189146 148.189146 345.449699 219.358934 539.785465 219.358933zM1096.144716 424.13456l-0.324976-0.324976c-16.573786-19.173596-44.521739-22.423358-64.99524-7.474452-125.440812 92.618216-259.331006 157.938432-408.820057 157.938432s-283.379245-65.320216-408.820057-157.938432c-20.148524-14.948905-48.421454-11.699143-64.99524 7.474452l-0.324976 0.324976c-9.099334 10.399238-12.674072 22.748334-11.374167 36.722311 1.624881 13.649 8.124405 25.023167 19.173596 33.147572 142.664551 105.292288 296.378293 176.787052 466.015868 176.787052s323.676293-71.81974 466.015868-176.787052c11.049191-8.124405 17.548715-19.498572 19.173595-33.147572s-2.274833-26.323072-11.374166-36.722311zM622.004443 352.96477300000004c102.042526 0 190.111076-30.872739 276.879721-92.618216 20.148524-14.298953 48.096477-11.049191 64.345287 7.799428l0.324976 0.324977c9.099334 10.724215 12.999048 23.07331 11.049191 37.047286-1.624881 13.973977-8.449381 25.023167-19.823548 33.147572-103.342431 73.444621-211.234529 110.166931-332.450651 110.166932-121.541098 0-229.10822-36.72231-332.45065-110.166932-11.374167-8.124405-18.198667-19.498572-19.823548-33.147572-1.624881-13.973977 1.949857-26.323072 11.04919-37.047286l0.324976-0.324977c16.24881-18.848619 43.871787-22.423358 64.345288-7.799428 86.768645 61.420501 174.837195 92.618216 276.87972 92.618216zM622.004443 137.50555399999996h-1.949857c-48.74643 0-95.867978-14.298953-135.840051-40.947001-20.4735-13.649-47.121549-9.749286-63.045382 8.774357-9.42431 10.724215-12.999048 23.723262-11.049191 38.022215s9.099334 25.67312 21.123453 33.472549c55.57093 36.72231 121.216122 56.870835 189.136147 56.870834h3.899714c67.595049 0 133.565217-20.148524 189.136148-56.870834 12.024119-7.799429 19.173596-19.173596 21.123453-33.472549s-1.949857-26.973024-11.049191-38.022215c-15.923834-18.523643-42.896858-22.423358-63.045383-8.774357-39.972072 26.648048-87.093621 40.947001-135.84005 40.947001h-1.949858zM549.859727-53.25547400000005c-0.974929-26.323072 12.674072-51.021263 35.422406-64.670264 22.748334-13.324024 51.021263-13.324024 73.769597 0s36.397334 38.347191 35.422405 64.670264c-1.299905 38.997144-33.147572 69.869883-72.144716 69.869882s-70.844811-30.872739-72.144716-69.869882z"  horiz-adv-x="1244" />

    
    <glyph glyph-name="-wuxian-1" unicode="&#58906;" d="M621.776027 799.765898c194.196961 0 391.275183-70.87901 539.371975-219.552054 19.01632-19.01632 48.981429-19.01632 67.997749 0 9.220034 9.220034 14.406303 21.321328 14.406303 33.998874s-5.186269 24.778841-14.406303 33.998875C1062.032639 815.324705 840.751829 895.423748 621.776027 895.423748S180.943163 814.748452 14.406303 648.211593C5.186269 638.991559 0 626.890264 0 614.212718s5.186269-24.778841 14.406303-33.998874c19.01632-19.01632 49.557681-19.01632 67.997749 0 148.096792 148.096792 345.175014 219.552054 539.371975 219.552054zM1095.455262 424.625774c-16.711311-19.01632-44.947665-22.473832-65.116489-7.491278-125.62296 92.77659-259.31345 157.893078-408.562746 157.893079-149.825549 0-283.516038-65.116488-408.562746-157.893079-20.168824-14.982555-48.405177-11.525042-65.116489 7.491278-9.220034 10.372538-12.677546 23.050084-10.94879 36.880135s8.06753 24.778841 19.01632 33.422622c142.334271 104.877884 296.193585 176.909398 466.187957 176.909398 169.41812 0 323.277434-71.455262 466.187957-176.909398 10.94879-8.06753 17.863815-19.592572 19.01632-33.422622 1.728756-13.830051-2.305008-25.931345-10.94879-36.880135zM621.776027 353.17051200000003c101.996624 0 190.163196-31.117614 276.601013-92.200338 20.168824-14.406303 47.828925-10.94879 63.963984 8.06753 9.220034 10.372538 12.677546 23.050084 10.94879 36.880135s-8.643782 25.355093-19.592571 33.422622c-103.149128 73.184018-210.908272 110.064153-332.497468 110.064154s-229.34834-36.880135-332.497468-110.064154c-11.525042-8.06753-17.863815-19.592572-19.592571-33.422622s2.305008-26.507597 10.94879-36.880135c16.135059-19.01632 43.79516-22.473832 63.963984-8.06753 87.014069 61.658976 174.604389 92.200338 276.601013 92.200338zM621.776027 137.65222300000005h-1.728756c-48.405177 0-95.65785-14.406303-135.995498-40.9139-20.168824-13.253799-47.252673-9.796286-63.387732 8.643782-9.220034 10.94879-13.253799 23.626337-10.948791 38.032639 1.728756 14.406303 9.220034 25.355093 21.321329 33.422622 55.896455 36.880135 121.012943 57.048959 189.010692 57.048959h3.457512c67.997749 0 133.114237-20.168824 189.010693-57.048959 12.101294-8.06753 19.01632-19.01632 21.321328-33.422622 1.728756-14.406303-1.728756-27.083849-10.94879-38.032639-16.135059-18.440068-42.642656-22.473832-63.387733-8.643782-39.761396 26.507597-87.014069 40.9139-135.995498 40.9139h-1.728756zM549.744513-53.08722599999999c-1.152504-26.507597 12.677546-51.286438 35.151379-64.540236s50.710186-13.253799 73.76027 0c22.473832 13.253799 36.303883 38.032639 35.151379 64.540236-1.152504 38.608891-33.422622 69.726505-72.031514 69.726506-39.185144 0-70.87901-30.541362-72.031514-69.726506z"  horiz-adv-x="1243" />

    
    <glyph glyph-name="-wuxian-2" unicode="&#58908;" d="M621.911351 799.883191c194.369546 0 391.409004-71.019642 539.678081-219.288719 18.689379-18.867374 49.126369-18.867374 67.993742 0 9.077699 9.077699 14.239527 21.359291 14.239527 33.996872 0 12.815574-5.161829 25.097167-14.239527 33.996871C1062.624718 815.5466710000001 840.844081 896 621.911351 896 402.800626 896 181.197984 815.5466710000001 14.239527 648.588215c-9.077699-9.077699-14.239527-21.359291-14.239527-33.996871 0-12.815574 5.161829-25.097167 14.239527-33.996872 18.867374-18.867374 49.304363-18.867374 67.993743 0C230.502347 728.863549 427.541804 799.883191 621.911351 799.883191zM1095.909612 424.315661l-0.177994-0.177994c-16.375456-19.045368-44.676517-22.427255-64.967843-7.297757-125.485833 92.734921-259.337389 158.058752-408.852424 158.058752s-283.366591-65.323831-408.852425-158.058752c-20.291326-14.951504-48.592387-11.74761-64.967843 7.297757l-0.177994 0.177994c-9.077699 10.501651-12.815574 22.961238-11.213628 36.666783s8.009734 24.919173 19.223362 33.106901c142.573266 105.194507 296.36016 176.748131 465.988528 176.748131 169.806362 0 323.593256-71.731618 465.988527-176.748131 11.035634-8.187728 17.621415-19.401356 19.223362-33.106901s-2.135929-26.165131-11.213628-36.666783zM621.911351 353.118025c101.81262 0 190.097688-30.970972 276.78081-92.556926 20.291326-14.417521 48.058404-11.035634 64.255866 7.83174l0.177994 0.177994c9.077699 10.679645 12.815574 23.139232 11.213628 37.02277-1.779941 13.883539-8.365722 25.097167-19.757344 33.284895-103.414566 73.333565-211.100991 110.178342-332.49296 110.178342s-229.078394-36.844777-332.492961-110.178342c-11.391622-8.009734-18.155397-19.401356-19.757343-33.284895-1.779941-13.883539 2.135929-26.521119 11.213627-37.02277l0.177994-0.177994c16.197462-18.867374 43.96454-22.249261 64.255867-7.83174 86.683122 61.585955 174.968191 92.556927 276.78081 92.556926zM621.911351 137.389188h-1.957935c-48.592387 0-95.938815-14.417521-135.809491-40.93864-20.291326-13.527551-47.168434-9.789675-63.187902 8.72171-9.255693 10.857639-13.171563 23.851208-11.035634 37.912741 1.957935 14.061533 9.255693 25.631149 21.003303 33.462889 55.71215 36.844777 121.213975 56.958109 189.029724 56.958109h3.91587c67.815748 0 133.317573-20.113332 189.029723-56.958109 11.925604-7.83174 19.045368-19.223362 21.003303-33.462889 1.957935-14.061533-1.779941-27.055102-11.035634-37.912741-15.841474-18.511385-42.718582-22.249261-63.187902-8.72171-40.04867 26.521119-87.217104 40.938641-135.80949 40.93864h-1.957935zM549.64575-53.242481999999995c-0.88997-26.343125 12.63758-51.084304 35.420824-64.611855s50.90631-13.527551 73.689553 0 36.310794 38.268729 35.420824 64.611855c-1.423953 38.980706-33.284895 69.773683-72.2656 69.773683s-70.841648-30.792978-72.265601-69.773683z"  horiz-adv-x="1243" />

    
    <glyph glyph-name="-wuxian-3" unicode="&#58909;" d="M621.617021 800c194.042553 0 391.489362-70.808511 539.914894-219.234043 19.06383-19.06383 49.021277-19.06383 68.085106 0 8.851064 8.851064 14.297872 21.106383 14.297873 34.042554s-4.765957 25.191489-14.297873 34.042553C1062.808511 815.659574 840.851064 896 622.297872 896 403.06383 896 181.787234 815.659574 14.978723 648.851064 6.12766 640 0.680851 627.744681 0.680851 614.808511s4.765957-25.191489 14.297872-34.042554c19.06383-19.06383 49.021277-19.06383 68.085107 0 148.425532 148.425532 345.191489 219.234043 539.914893 219.234043zM1095.489362 424.170213c-16.340426-19.06383-44.93617-22.468085-64.680851-7.489362-125.276596 92.595745-259.404255 157.957447-408.510639 157.957447-149.787234 0-283.234043-65.361702-408.510638-157.957447-20.425532-14.978723-48.340426-11.574468-64.680851 7.489362-8.851064 10.212766-12.93617 23.148936-10.893617 36.765957 1.361702 13.617021 8.170213 25.191489 19.06383 33.361702 142.297872 104.851064 296.170213 177.021277 465.702127 177.021277s323.404255-71.489362 465.702128-177.021277c10.893617-8.170213 17.702128-19.744681 19.06383-33.361702s-2.042553-25.87234-10.893617-36.765957zM621.617021 353.36170200000004c102.12766 0 189.957447-30.638298 277.106383-92.595745 20.425532-14.297872 48.340426-10.893617 64 8.170213 8.851064 10.893617 12.93617 23.148936 10.893617 36.765958-1.361702 13.617021-8.170213 25.191489-19.744681 33.361702-103.489362 73.531915-211.06383 110.297872-332.255319 110.297872s-229.446809-36.765957-332.255319-110.297872c-11.574468-8.170213-18.382979-19.06383-19.744681-33.361702-2.042553-13.617021 2.042553-26.553191 10.893617-36.765958 16.340426-19.06383 43.574468-22.468085 64-8.170213 86.468085 61.276596 174.978723 92.595745 277.106383 92.595745zM621.617021 137.53191500000003h-2.042553c-48.340426 0-96-14.297872-136.170213-40.851064-20.425532-13.617021-46.978723-9.531915-63.319149 8.851064-9.531915 10.893617-12.93617 23.829787-10.893617 38.127659s8.851064 25.87234 21.106383 33.361703c55.829787 36.765957 121.191489 57.191489 189.276596 57.191489h4.085106c67.404255 0 133.446809-19.744681 189.276596-57.191489 11.574468-8.170213 19.06383-19.06383 21.106383-33.361703s-2.042553-27.234043-10.893617-38.127659c-15.659574-18.382979-42.893617-22.468085-63.319149-8.851064-40.170213 26.553191-87.148936 40.851064-136.170213 40.851064h-2.042553zM549.446809-53.10638300000005c-0.680851-26.553191 12.93617-51.06383 35.404255-64.680851s51.06383-13.617021 73.531915 0 36.085106 38.12766 35.404255 64.680851c-1.361702 38.808511-33.361702 69.446809-72.170213 69.446809s-70.808511-30.638298-72.170212-69.446809z"  horiz-adv-x="1243" />

    
    <glyph glyph-name="B" unicode="&#59133;" d="M920.5248-46.08H148.61824A82.12992 82.12992 0 0 0 66.56 35.93728V787.42016a36.9152 36.9152 0 0 0 73.8304 0v-751.48288a8.23808 8.23808 0 0 1 8.22784-8.22272H920.5248a36.89984 36.89984 0 1 0 0-73.79456zM230.912 252.55936a36.89984 36.89984 0 0 0-25.6 63.4624l220.3136 212.2496a36.9152 36.9152 0 0 0 51.712-0.47616l122.8288-122.77248 212.79744 207.96928a36.90496 36.90496 0 1 0 51.6096-52.76672l-238.89408-233.472a36.9152 36.9152 0 0 0-51.90144 0.29696L450.71872 450.00192 256.512 262.89664a36.77184 36.77184 0 0 0-25.6-10.33728z"  horiz-adv-x="1024" />

    
    <glyph glyph-name="zanting" unicode="&#58924;" d="M142.293 896h22.261q77.913 0 77.913-77.913v-868.174q0-77.913-77.913-77.913h-22.26q-77.914 0-77.914 77.913V818.087Q64.38 896 142.293 896zM810.12 896h22.26q77.913 0 77.913-77.913v-868.174q0-77.913-77.913-77.913h-22.26q-77.913 0-77.913 77.913V818.087Q732.207 896 810.12 896z"  horiz-adv-x="1024" />

    
    <glyph glyph-name="jiechubangding" unicode="&#58946;" d="M853.2 725.2c-46.5 46.4-108.3 72-174.2 72h-0.1c-65.9 0-127.7-25.6-174.1-72l-95.6-95.6 52.6-52.6 95.6 95.6c67 67 176.1 67 243.1 0 32.4-32.4 50.3-75.6 50.3-121.6s-17.9-89.1-50.3-121.6L705 333.9l52.6-52.6 95.7 95.5c96 96.1 96 252.3-0.1 348.4zM466.5 95.6c-32.4-32.5-75.6-50.4-121.5-50.4-45.9 0-89.1 17.9-121.6 50.4C190.9 128 173 171.2 173 217.1c0 46 17.9 89.1 50.3 121.6l95.6 95.6-52.6 52.6-95.6-95.6c-96-96-96-252.3 0-348.4 46.5-46.5 108.4-72.2 174.2-72.2 65.9 0 127.7 25.7 174.1 72.3l95.6 95.6-52.6 52.6-95.5-95.6zM481.8 466.8L320.6 628 268 575.4l161.2-161.2zM539.5 304l161.2-161.2 52.6 52.6-161.2 161.2z"  horiz-adv-x="1024" />

    
    <glyph glyph-name="binding" unicode="&#58897;" d="M1151.965 191.99h-159.995v64.030h159.995v575.983h-735.978v-575.983h255.992v-64.030h-319.99v704.011h863.974v-704.011h-63.998zM63.998-63.97h735.978v575.983h-255.992v63.966h319.99v-703.979h-863.974v703.979h223.993v-63.966h-159.995v-575.983z"  horiz-adv-x="1216" />

    
    <glyph glyph-name="shouqi-icon1" unicode="&#59053;" d="M816.823182-100.352a87.950222 87.950222 0 0 1 42.439111 23.665778l707.925334 708.039111a88.405333 88.405333 0 0 1-124.928 125.041778L796.570738 110.478222 150.881849 756.280889A88.291556 88.291556 0 1 1 25.953849 631.239111L733.99296-76.8a88.291556 88.291556 0 0 1 82.944-23.552z"  horiz-adv-x="1594" />

    
    <glyph glyph-name="zhankai-icon1" unicode="&#59054;" d="M816.823182 779.832889c15.587556-3.640889 30.264889-11.377778 42.439111-23.552l707.925334-708.152889a88.405333 88.405333 0 0 0-124.928-124.928L796.570738 569.116444 150.881849-76.8A88.291556 88.291556 0 1 0 25.953849 48.241778L733.99296 756.394667a88.291556 88.291556 0 0 0 82.944 23.438222z"  horiz-adv-x="1593" />

    
    <glyph glyph-name="zhandianxiugai-icon1" unicode="&#59052;" d="M1024 896v-640H544v-384h-64v384H0V896h1024z m-64-64H64v-448h896V832zM448 640v-64H128V640h320z"  horiz-adv-x="1024" />

    
    <glyph glyph-name="cheliangduitiao-icon1" unicode="&#59051;" d="M848.871863 896a73.142857 73.142857 0 0 0 73.142857-73.142857v-80.457143a102.4 102.4 0 0 0 9.874286-204.361143L922.01472 537.6l0.073143-231.131429a220.452571 220.452571 0 0 1-102.473143-3.510857V691.2H205.21472v-409.6l563.565714 0.146286c-40.521143-23.405714-72.923429-59.245714-91.794285-102.473143L666.01472 179.2v-31.597714a219.794286 219.794286 0 0 1 115.126857-253.074286 102.4 102.4 0 0 0-165.814857 69.997714L614.81472-25.6l-204.8-0.073143a102.4 102.4 0 0 0-92.525714-101.888L307.61472-128a102.4 102.4 0 0 0-101.961143 92.525714L205.21472-25.6h-29.257143a73.142857 73.142857 0 0 0-73.142857 73.142857l-0.073143 490.130286-9.801143 0.365714A102.4 102.4 0 0 0 102.81472 742.4L102.81472 822.857143a73.142857 73.142857 0 0 0 73.142857 73.142857h672.914286z m170.861714-826.368a36.571429 36.571429 0 0 0 6.582857-72.557714l-6.582857-0.585143h-131.291428l1.609142-2.194286a36.571429 36.571429 0 0 0-1.536-41.472l-4.388571-4.973714a36.571429 36.571429 0 0 0-46.811429-2.486857l-4.900571 4.388571-54.125714 58.441143a36.571429 36.571429 0 0 0 20.626285 60.928l6.144 0.512h214.674286zM358.81472 179.2H205.21472v-102.4h153.6V179.2z m628.589714 87.771429l4.900572-4.388572 54.125714-58.368a36.571429 36.571429 0 0 0-20.553143-60.928l-6.217143-0.512H804.986149a36.571429 36.571429 0 0 0-6.582858 72.557714l6.582858 0.585143h131.291428l-1.609143 2.194286a36.571429 36.571429 0 0 0 1.536 41.472l4.388572 4.973714a36.571429 36.571429 0 0 0 46.811428 2.486857zM666.01472 793.6H358.81472v-51.2h307.2v51.2z"  horiz-adv-x="1097" />

    
    <glyph glyph-name="xiahang-icon1" unicode="&#59049;" d="M512 861.866667a477.866667 477.866667 0 1 0 0-955.733334 477.866667 477.866667 0 0 0 0 955.733334z m0-68.266667a409.6 409.6 0 1 1 0-819.2 409.6 409.6 0 0 1 0 819.2zM761.856 622.933333v-50.7904H529.2032v-71.543466a2513.92 2513.92 0 0 0 203.1616-110.865067l-31.1296-46.967467c-68.8128 44.782933-126.1568 79.189333-172.032 102.673067v-301.4656h-51.882667V572.142933H273.066667V622.933333h488.789333z"  horiz-adv-x="1024" />

    
    <glyph glyph-name="shanghang-icon1" unicode="&#59050;" d="M512 861.866667a477.866667 477.866667 0 1 0 0-955.733334 477.866667 477.866667 0 0 0 0 955.733334z m0-68.266667a409.6 409.6 0 1 1 0-819.2 409.6 409.6 0 0 1 0 819.2zM518.280533 622.933333v-164.386133h202.069334v-50.244267h-202.069334v-219.5456h244.1216v-50.244266H273.066667v50.244266h191.6928V622.933333h53.521066z"  horiz-adv-x="1024" />

    
    <glyph glyph-name="cheliang-icon2" unicode="&#59048;" d="M807.889351 896a113.777778 113.777778 0 0 0 113.777778-113.777778l0.056889-39.822222a102.4 102.4 0 0 0-0.056889-204.8v-449.422222a113.777778 113.777778 0 0 0-113.777778-113.777778h11.377778a102.4 102.4 0 0 0-204.8 0H409.667129a102.4 102.4 0 0 0-204.8 0h11.377778a113.777778 113.777778 0 0 0-113.777778 113.777778l-0.056889 449.422222-8.362667 0.341333A102.4 102.4 0 0 0 102.467129 742.4L102.467129 782.222222a113.777778 113.777778 0 0 0 113.777778 113.777778h591.644444zM358.467129 179.2H204.867129v-102.4h153.6v102.4z m460.8 0h-153.6v-102.4h153.6v102.4z m0 512H204.867129v-409.6h614.4V691.2z m-153.6 102.4H358.467129v-51.2h307.2v51.2z"  horiz-adv-x="1024" />

    
    <glyph glyph-name="jiaoseguanli-icon" unicode="&#59042;" d="M570.112 356.544a192 192 0 0 0 186.24-145.408l26.752-106.944a128 128 0 0 0-124.16-159.04H163.968a128 128 0 0 0-124.16 159.04l26.688 106.944a192 192 0 0 0 186.24 145.408h317.376z m0-64H252.736a128 128 0 0 1-121.28-87.04l-2.88-9.92-26.752-106.88a64 64 0 0 1 54.656-79.104l7.488-0.448h494.976a64 64 0 0 1 63.424 72.192l-1.344 7.296-26.752 106.944a128 128 0 0 1-113.92 96.576l-10.24 0.384z m115.584 370.304a169.152 169.152 0 0 0 124.992-283.072 212.992 212.992 0 0 0 146.048-152.576 142.4 142.4 0 0 0-103.552-172.672 32 32 0 1 0-15.552 62.08 78.4 78.4 0 0 1 57.024 95.04 149.12 149.12 0 0 1-133.888 112.512l-10.688 0.384h-46.336a32 32 0 0 0-13.44 61.056 32.64 32.64 0 0 0 11.648 4.224 105.152 105.152 0 0 1-16.256 209.024 32 32 0 1 0 0 64zM411.52 768a205.696 205.696 0 1 0 0-411.456 205.696 205.696 0 0 0 0 411.456z m0-64a141.696 141.696 0 1 1 0-283.456 141.696 141.696 0 0 1 0 283.456z"  horiz-adv-x="1024" />

    
    <glyph glyph-name="mokuaiguanli-icon" unicode="&#59043;" d="M352 864a128 128 0 0 0 128-128v-320h-320a128 128 0 0 0-128 128v192a128 128 0 0 0 128 128h192z m7.488-64.448L352 800h-192a64 64 0 0 1-63.552-56.512L96 736v-192a64 64 0 0 1 56.512-63.552L160 480h256v256a64 64 0 0 1-49.28 62.336l-7.232 1.28zM480 352v-320a128 128 0 0 0-128-128h-192a128 128 0 0 0-128 128v192a128 128 0 0 0 128 128h320z m-64-64h-256a64 64 0 0 1-63.552-56.512L96 224v-192a64 64 0 0 1 56.512-63.552l7.488-0.448h192a64 64 0 0 1 63.552 56.512L416 32v256zM768 864a224 224 0 1 1 0-448 224 224 0 0 1 0 448z m0-64a160 160 0 1 0 0-320 160 160 0 0 0 0 320zM544 352v-320a128 128 0 0 1 128-128h192a128 128 0 0 1 128 128v192a128 128 0 0 1-128 128h-320z m64-64h256a64 64 0 0 0 63.552-56.512l0.448-7.488v-192a64 64 0 0 0-56.512-63.552l-7.488-0.448h-192a64 64 0 0 0-63.552 56.512L608 32v256z"  horiz-adv-x="1024" />

    
    <glyph glyph-name="xitongpeizhi-icon" unicode="&#59044;" d="M928 768a64 64 0 0 0 64-64v-512a64 64 0 0 0-64-64H96a64 64 0 0 0-64 64V704a64 64 0 0 0 64 64h832z m0-64H96v-512h832V704zM480 640m32 0l0 0q32 0 32-32l0-320q0-32-32-32l0 0q-32 0-32 32l0 320q0 32 32 32ZM672 640m32 0l0 0q32 0 32-32l0-320q0-32-32-32l0 0q-32 0-32 32l0 320q0 32 32 32ZM320 640a32 32 0 0 0 32-32v-320a32 32 0 0 0-64 0v320a32 32 0 0 0 32 32zM320 384m-64 0a64 64 0 1 1 128 0 64 64 0 1 1-128 0ZM704 384m-64 0a64 64 0 1 1 128 0 64 64 0 1 1-128 0ZM512 512m-64 0a64 64 0 1 1 128 0 64 64 0 1 1-128 0ZM288 0m32 0l384 0q32 0 32-32l0 0q0-32-32-32l-384 0q-32 0-32 32l0 0q0 32 32 32ZM480 192h64v-256H480z"  horiz-adv-x="1024" />

    
    <glyph glyph-name="rizhijilu-icon" unicode="&#59045;" d="M800 896a128 128 0 0 0 128-128v-768a128 128 0 0 0-128-128h-512a128 128 0 0 0-128 128V768a128 128 0 0 0 128 128h512z m0-64h-512a64 64 0 0 1-63.552-56.512L224 768v-768a64 64 0 0 1 56.512-63.552L288-64h512a64 64 0 0 1 63.552 56.512L864 0V768a64 64 0 0 1-56.512 63.552L800 832zM352 128m32 0l320 0q32 0 32-32l0 0q0-32-32-32l-320 0q-32 0-32 32l0 0q0 32 32 32ZM352 384m32 0l320 0q32 0 32-32l0 0q0-32-32-32l-320 0q-32 0-32 32l0 0q0 32 32 32ZM352 640m32 0l320 0q32 0 32-32l0 0q0-32-32-32l-320 0q-32 0-32 32l0 0q0 32 32 32ZM284.8 256a32 32 0 0 0 5.76-63.488L284.8 192H96a32 32 0 0 0-5.76 63.488L96 256h188.8zM284.8 576a32 32 0 0 0 5.76-63.488L284.8 512H96a32 32 0 0 0-5.76 63.488L96 576h188.8z"  horiz-adv-x="1024" />

    
    <glyph glyph-name="zhanghuguanli-icon" unicode="&#59046;" d="M832 768a128 128 0 0 0 128-128v-512a128 128 0 0 0-128-128H192a128 128 0 0 0-128 128V640a128 128 0 0 0 128 128h640z m0-64H192a64 64 0 0 1-63.552-56.512L128 640v-512a64 64 0 0 1 56.512-63.552L192 64h640a64 64 0 0 1 63.552 56.512L896 128V640a64 64 0 0 1-56.512 63.552L832 704zM416 640a128 128 0 1 0 0-256 128 128 0 0 0 0 256z m0-64a64 64 0 1 1 0-128 64 64 0 0 1 0 128zM476.032 384A168.96 168.96 0 0 0 640 256a103.04 103.04 0 0 0-99.968-128H291.968A103.04 103.04 0 0 0 192 256a168.96 168.96 0 0 0 163.968 128h120.064z m0-64H355.968a104.96 104.96 0 0 1-101.888-79.552 39.04 39.04 0 0 1 31.552-47.936l6.336-0.512h248.064a39.04 39.04 0 0 1 37.888 48.448 104.96 104.96 0 0 1-92.288 79.104L476.032 320zM800 608a32 32 0 0 0 5.76-63.488l-5.76-0.512h-128a32 32 0 0 0-5.76 63.488l5.76 0.512h128zM800 480a32 32 0 0 0 5.76-63.488l-5.76-0.512h-128a32 32 0 0 0-5.76 63.488l5.76 0.512h128zM800 352a32 32 0 0 0 5.76-63.488l-5.76-0.512h-128a32 32 0 0 0-5.76 63.488l5.76 0.512h128z"  horiz-adv-x="1024" />

    
    <glyph glyph-name="xiaoxitongzhi-icon" unicode="&#59047;" d="M720.9088-51.2a32 32 0 0 0 5.76-63.488l-5.76-0.512H328.9088a32 32 0 0 0-5.76 63.488l5.76 0.512h392zM511.8848 896a131.776 131.776 0 0 0 97.216-220.672c101.568-35.008 179.072-124.992 194.432-233.408 2.24-15.872 3.2-31.68 2.944-47.168l0.064-16.064c1.92-63.744 22.976-121.984 61.504-166.592l71.36-82.56c46.656-54.4 10.432-141.12-62.528-142.336H150.8608c-9.088 0-17.984 1.28-26.496 3.712-58.368 16.704-78.72 88.832-40.96 135.872l80.128 100.032c37.504 46.72 56.832 107.008 56.64 172.416l0.256 13.312c5.056 122.048 85.376 223.488 195.008 262.016A131.776 131.776 0 0 0 511.8208 896z m27.264-270.144c-137.984 14.72-256.64-91.136-256.64-226.56l-0.32-17.28C279.3728 311.104 256.2688 244.992 213.5808 192.128l-79.232-98.432c-11.712-14.592-5.504-36.544 10.624-41.152a34.944 34.944 0 0 1 9.664-1.344H872.5888c20.48 0.32 31.616 26.88 17.28 43.584l-70.528 81.152c-51.2 59.008-76.8 136.32-75.2 219.008l-0.128 12.288a238.976 238.976 0 0 1-2.176 24.96C727.3088 533.568 642.3168 614.784 539.1488 625.856zM511.8848 832a67.776 67.776 0 1 1 0-135.552 67.776 67.776 0 0 1 0 135.552z"  horiz-adv-x="1024" />

    
    <glyph glyph-name="yunyingribao-icon" unicode="&#59039;" d="M832 896a128 128 0 0 0 128-128v-768a128 128 0 0 0-128-128H320a128 128 0 0 0-128 128V768a128 128 0 0 0 128 128h512z m0-64H320a64 64 0 0 1-63.552-56.512L256 768v-768a64 64 0 0 1 56.512-63.552L320-64h512a64 64 0 0 1 63.552 56.512L896 0V768a64 64 0 0 1-56.512 63.552L832 832zM384 128m32 0l320 0q32 0 32-32l0 0q0-32-32-32l-320 0q-32 0-32 32l0 0q0 32 32 32ZM512 640a192 192 0 1 0 0-384H448V640h64z m0-320l9.6 0.32a128 128 0 0 1 0 255.36L512 576v-256z"  horiz-adv-x="1088" />

    
    <glyph glyph-name="yunyingludan-icon" unicode="&#59040;" d="M832 896a128 128 0 0 0 128-128v-768a128 128 0 0 0-128-128H320a128 128 0 0 0-128 128V768a128 128 0 0 0 128 128h512z m0-64H320a64 64 0 0 1-63.552-56.512L256 768v-768a64 64 0 0 1 56.512-63.552L320-64h512a64 64 0 0 1 63.552 56.512L896 0V768a64 64 0 0 1-56.512 63.552L832 832zM384 128m32 0l320 0q32 0 32-32l0 0q0-32-32-32l-320 0q-32 0-32 32l0 0q0 32 32 32ZM480 704.448a32 32 0 0 0 31.488-26.24l0.512-5.76L511.936 352l160.32-0.064a32 32 0 0 0 31.488-26.24l0.512-5.76a32 32 0 0 0-26.24-31.488l-5.76-0.512H480a32 32 0 0 0-31.488 26.24L448 320V672.448a32 32 0 0 0 32 32z"  horiz-adv-x="1088" />

    
    <glyph glyph-name="yunyingyuebao-icon" unicode="&#59041;" d="M832 896a128 128 0 0 0 128-128v-768a128 128 0 0 0-128-128H320a128 128 0 0 0-128 128V768a128 128 0 0 0 128 128h512z m0-64H320a64 64 0 0 1-63.552-56.512L256 768v-768a64 64 0 0 1 56.512-63.552L320-64h512a64 64 0 0 1 63.552 56.512L896 0V768a64 64 0 0 1-56.512 63.552L832 832zM384 128m32 0l320 0q32 0 32-32l0 0q0-32-32-32l-320 0q-32 0-32 32l0 0q0 32 32 32ZM676.288 592c15.36 26.56 54.4 18.048 59.2-10.112L736 576v-256a32 32 0 0 0-63.488-5.76L672 320V456.896L603.712 338.624a32 32 0 0 0-51.968-4.864l-3.456 4.864L480 456.768V320a32 32 0 0 0-26.24-31.488L448 288a32 32 0 0 0-31.488 26.24L416 320V576c0 30.72 38.08 42.816 56.32 20.864l3.392-4.864L576 418.56l100.288 173.44z"  horiz-adv-x="1088" />

    
    <glyph glyph-name="paibanpeiche-icondefuben" unicode="&#59038;" d="M832 864a160 160 0 0 0 159.68-149.504L992 704v-352a32 32 0 0 0-63.488-5.76L928 352V704a96 96 0 0 1-86.784 95.552L832 800H320a96 96 0 0 1-95.552-86.784L224 704v-640a96 96 0 0 1 86.784-95.552L320-32h319.552a32 32 0 0 0 5.76-63.488l-5.76-0.512H320a160 160 0 0 0-159.68 149.504L160 64V704A160 160 0 0 0 309.504 863.68L320 864h512zM384 0a64 64 0 1 0 0-128 64 64 0 0 0 0 128zM384 704m32 0l320 0q32 0 32-32l0 0q0-32-32-32l-320 0q-32 0-32 32l0 0q0 32 32 32ZM192 384h768v-64H192zM96 640m32 0l0 0q32 0 32-32l0-64q0-32-32-32l0 0q-32 0-32 32l0 64q0 32 32 32ZM992 640m32 0l0 0q32 0 32-32l0-64q0-32-32-32l0 0q-32 0-32 32l0 64q0 32 32 32ZM384 128m-64 0a64 64 0 1 1 128 0 64 64 0 1 1-128 0ZM864 320a224 224 0 1 0 0-448 224 224 0 0 0 0 448z m0-64a160 160 0 1 1 0-320 160 160 0 0 1 0 320zM939.456 195.328a32 32 0 0 0 14.08-38.528l-2.368-5.184-64-110.912a32 32 0 0 0-38.464-14.08l-5.248 2.368-54.912 31.68a32 32 0 0 0 26.752 57.856l5.248-2.432 27.2-15.68 48 83.2a32 32 0 0 0 38.4 14.08l5.312-2.368z"  horiz-adv-x="1088" />

    
    <glyph glyph-name="banciyunhang-icon" unicode="&#59036;" d="M911.04 807.552c48 0 87.36-36.608 91.84-83.392l0.384-8.896v-242.56a32 32 0 0 0-63.424-5.76l-0.576 5.76v242.56a28.224 28.224 0 0 1-23.104 27.84l-5.12 0.448H188.224a28.224 28.224 0 0 1-27.776-23.168l-0.448-5.12v-722.816c0-13.824 9.984-25.344 23.168-27.776l5.12-0.448h486.4a32 32 0 0 0 5.76-63.488l-5.76-0.512h-486.4c-48 0-87.424 36.608-91.84 83.392L96-7.552V715.264c0 48 36.608 87.36 83.328 91.84l8.96 0.448h722.752zM248.448 353.856m32 0l237.184 0q32 0 32-32l0 0q0-32-32-32l-237.184 0q-32 0-32 32l0 0q0 32 32 32ZM128 594.816h843.264v-64H128zM847.04 414.08a240.96 240.96 0 1 0 0-481.856 240.96 240.96 0 0 0 0 481.92z m0-64a176.96 176.96 0 1 1 0-353.856 176.96 176.96 0 0 1 0 353.92zM847.04 325.632a32 32 0 0 0 31.488-26.24l0.512-5.76v-120.448a32 32 0 0 0-7.616-20.736l-4.032-4.032-95.168-78.08a32 32 0 0 0-44.672 45.44l4.096 4.032 83.392 68.544V293.632a32 32 0 0 0 26.24 31.488l5.76 0.512zM248.448 173.184m32 0l237.184 0q32 0 32-32l0 0q0-32-32-32l-237.184 0q-32 0-32 32l0 0q0 32 32 32ZM308.736 896m32 0l0 0q32 0 32-32l0-176.96q0-32-32-32l0 0q-32 0-32 32l0 176.96q0 32 32 32ZM730.368 896m32 0l0 0q32 0 32-32l0-176.96q0-32-32-32l0 0q-32 0-32 32l0 176.96q0 32 32 32Z"  horiz-adv-x="1088" />

    
    <glyph glyph-name="yunyingtiaodu-icon" unicode="&#59037;" d="M1024 896a64 64 0 0 0 64-64v-896a64 64 0 0 0-64-64H128a64 64 0 0 0-64 64V832a64 64 0 0 0 64 64h896z m0-64H128v-896h896V832zM702.528 704a128 128 0 1 0 0-256 128 128 0 0 0 0 256z m0-64a64 64 0 1 1 0-128 64 64 0 0 1 0 128zM574.528 608a32 32 0 0 0 5.76-63.488l-5.76-0.512H256a32 32 0 0 0-5.76 63.488L256 608h318.528zM902.336 608a32 32 0 0 0 5.76-63.488l-5.76-0.512h-71.808a32 32 0 0 0-5.76 63.488l5.76 0.512h71.808zM449.472 320a128 128 0 1 1 0-256 128 128 0 0 1 0 256z m0-64a64 64 0 1 0 0-128 64 64 0 0 0 0 128zM577.472 224a32 32 0 0 1-5.76-63.488l5.76-0.512H896a32 32 0 0 1 5.76 63.488L896 224H577.472zM249.664 224a32 32 0 0 1-5.76-63.488l5.76-0.512h71.808a32 32 0 0 1 5.76 63.488l-5.76 0.512H249.664z"  horiz-adv-x="1088" />

    
    <glyph glyph-name="paibanpeiche-icon" unicode="&#59031;" d="M1024 864a64 64 0 0 0 64-64v-320H64V800a64 64 0 0 0 64 64h896z m0-64H128v-256h896V800zM1024 544a64 64 0 0 0 64-64v-512a64 64 0 0 0-64-64H128a64 64 0 0 0-64 64V480a64 64 0 0 0 64 64h896z m0-64H128v-512h896V480zM320 736a64 64 0 1 0 0-128 64 64 0 0 0 0 128zM832 736a64 64 0 1 0 0-128 64 64 0 0 0 0 128zM256 352m32 0l576 0q32 0 32-32l0 0q0-32-32-32l-576 0q-32 0-32 32l0 0q0 32 32 32ZM256 160m32 0l320 0q32 0 32-32l0 0q0-32-32-32l-320 0q-32 0-32 32l0 0q0 32 32 32Z"  horiz-adv-x="1088" />

    
    <glyph glyph-name="lunbanshezhi-icon" unicode="&#59033;" d="M128 416a32 32 0 0 0 32-32 416 416 0 0 1 787.84-186.88l7.552 16.064-85.568-27.648a32 32 0 0 0-38.016 15.36l-2.24 5.312a32 32 0 0 0 15.36 38.016l5.248 2.24 147.648 47.616a32 32 0 0 0 40.64-39.04A480 480 0 0 0 96 384a32 32 0 0 0 32 32z m448 448A480 480 0 0 0 1056 384a32 32 0 1 0-64 0A416 416 0 0 1 199.808 561.92l-6.4-14.144 94.464 34.304a32 32 0 0 0 38.528-13.952l2.432-5.184a32 32 0 0 0-13.888-38.592l-5.248-2.432-156.928-56.96a32 32 0 0 0-41.92 37.952A480.192 480.192 0 0 0 576 864z"  horiz-adv-x="1088" />

    
    <glyph glyph-name="hangchefangan-icon" unicode="&#59034;" d="M564.608 863.68A192.192 192.192 0 0 1 397.312 742.4l-2.368-6.464h-106.88A96 96 0 0 1 192 640v-640A96 96 0 0 1 288-96h576a96 96 0 0 1 96 96V640l-0.448 9.216A96 96 0 0 1 864 736h-107.008l-2.304 6.4A192.128 192.128 0 0 1 576 864l-11.392-0.32zM576 800a128 128 0 0 0 125.44-102.4 32 32 0 0 1 31.36-25.6H864a32 32 0 0 0 32-32v-640a32 32 0 0 0-32-32H288a32 32 0 0 0-32 32V640a32 32 0 0 0 32 32h131.2a32 32 0 0 1 31.36 25.6A128 128 0 0 0 576 800zM352 512m32 0l384 0q32 0 32-32l0 0q0-32-32-32l-384 0q-32 0-32 32l0 0q0 32 32 32ZM352 320m32 0l256 0q32 0 32-32l0 0q0-32-32-32l-256 0q-32 0-32 32l0 0q0 32 32 32ZM352 128m32 0l128 0q32 0 32-32l0 0q0-32-32-32l-128 0q-32 0-32 32l0 0q0 32 32 32Z"  horiz-adv-x="1088" />

    
    <glyph glyph-name="hangchejihua-icon" unicode="&#59035;" d="M512 864c80.256 0 150.4-49.6 178.688-121.6l2.304-6.4H800a96 96 0 0 0 95.552-86.784L896 640v-242.112a32 32 0 0 0-63.488-5.76l-0.512 5.76V640a32 32 0 0 1-26.24 31.488L800 672H668.8a32 32 0 0 0-31.36 25.6 128 128 0 0 1-250.88 0 32 32 0 0 0-25.792-25.152L355.2 672 224 672a32 32 0 0 1-31.488-26.24L192 640v-640a32 32 0 0 1 26.24-31.488L224-32h448a32 32 0 0 0 5.76-63.488L672-96H224a96 96 0 0 0-95.552 86.784L128 0V640a96 96 0 0 0 86.784 95.552L224 736h106.944l2.368 6.4A192.192 192.192 0 0 0 500.608 863.744L512 864zM288 512m32 0l384 0q32 0 32-32l0 0q0-32-32-32l-384 0q-32 0-32 32l0 0q0 32 32 32ZM288 320m32 0l256 0q32 0 32-32l0 0q0-32-32-32l-256 0q-32 0-32 32l0 0q0 32 32 32ZM288 128m32 0l128 0q32 0 32-32l0 0q0-32-32-32l-128 0q-32 0-32 32l0 0q0 32 32 32ZM800 352a224 224 0 1 1 0-448 224 224 0 0 1 0 448z m0-64a160 160 0 1 0 0-320 160 160 0 0 0 0 320zM800 224a32 32 0 0 0 31.488-26.24l0.512-5.76v-32h32a32 32 0 0 0 31.488-26.24l0.512-5.76a32 32 0 0 0-26.24-31.488L864 96h-64a32 32 0 0 0-31.488 26.24L768 128v64a32 32 0 0 0 32 32z"  horiz-adv-x="1088" />

    
    <glyph glyph-name="jiashiyuanguanli-icon1" unicode="&#59032;" d="M512 832a238.912 238.912 0 0 0 167.04-409.792l-9.728 0.192a318.528 318.528 0 0 0 315.328-273.088 238.976 238.976 0 0 0-236.544-273.024H275.904a238.976 238.976 0 0 0-236.544 273.024 318.528 318.528 0 0 0 305.664 272.96A238.912 238.912 0 0 0 512 832z m-44.544-473.728L354.688 358.4a254.528 254.528 0 0 1-251.968-218.24 174.976 174.976 0 0 1 162.56-199.552l10.624-0.32 33.728-0.064a32.32 32.32 0 0 0-0.32 4.288 270.912 270.912 0 0 0 342.72 261.376l90.752 141.76a253.888 253.888 0 0 1-60.416 10.432l-13.056 0.32-112.832-0.128a240.256 240.256 0 0 0-88.96 0z m112.832-206.784a206.912 206.912 0 0 1-206.976-206.976l-0.384-4.224h375.168a174.976 174.976 0 0 1 39.104 4.416 206.912 206.912 0 0 1-206.912 206.72z m221.568 169.728l-89.6-139.968a271.04 271.04 0 0 0 137.472-208.512 174.976 174.976 0 0 1 71.552 167.488 254.336 254.336 0 0 1-119.424 180.992zM512 768a174.912 174.912 0 0 1-38.208-345.664h76.416A174.976 174.976 0 0 1 512 768z"  horiz-adv-x="1024" />

    
    <glyph glyph-name="chengwuyuanguanli-icon" unicode="&#59030;" d="M512 800a224 224 0 1 0 0-448 224 224 0 0 0 0 448z m0-64a160 160 0 1 1 0-320 160 160 0 0 1 0 320zM748.288 416C900.608 416 1024 301.44 1024 160s-123.456-256-275.712-256H275.712C123.392-96 0 18.56 0 160s123.456 256 275.712 256h472.576z m0-64H275.712C158.72 352 64 266.048 64 160c0-102.4 88.32-186.048 199.68-191.68l12.032-0.32h472.576C865.28-32 960 53.952 960 160c0 102.4-88.32 186.048-199.68 191.68L748.288 352zM275.712 726.144a236.288 98.432 0 1 1 472.576 0 236.288 98.432 0 1 1-472.576 0ZM196.928 785.216a315.072 78.784 0 1 1 630.144 0 315.072 78.784 0 1 1-630.144 0Z"  horiz-adv-x="1024" />

    
    <glyph glyph-name="cheliangguanli-icon" unicode="&#59022;" d="M768 832a128 128 0 0 0 128-128v-640a128 128 0 0 0-128-128H256a128 128 0 0 0-128 128V704a128 128 0 0 0 128 128h512z m0-64H256a64 64 0 0 1-63.552-56.512L192 704v-640a64 64 0 0 1 56.512-63.552L256 0h512a64 64 0 0 1 63.552 56.512L832 64V704a64 64 0 0 1-56.512 63.552L768 768zM320 0a64 64 0 1 0 0-128 64 64 0 0 0 0 128zM704 0a64 64 0 1 0 0-128 64 64 0 0 0 0 128zM320 704m32 0l320 0q32 0 32-32l0 0q0-32-32-32l-320 0q-32 0-32 32l0 0q0 32 32 32ZM64 640m32 0l0 0q32 0 32-32l0-64q0-32-32-32l0 0q-32 0-32 32l0 64q0 32 32 32ZM896 640m32 0l0 0q32 0 32-32l0-64q0-32-32-32l0 0q-32 0-32 32l0 64q0 32 32 32ZM320 128m-64 0a64 64 0 1 1 128 0 64 64 0 1 1-128 0ZM704 128m-64 0a64 64 0 1 1 128 0 64 64 0 1 1-128 0ZM128 384h768v-64H128z"  horiz-adv-x="1088" />

    
    <glyph glyph-name="changshangguanli-icon" unicode="&#59023;" d="M734.208 576a128 128 0 0 0 123.52-94.336l122.176-448A128 128 0 0 0 856.384-128H167.68a128 128 0 0 0-123.52 161.664l122.24 448A128 128 0 0 0 289.728 576h444.416z m0-64H289.792a64 64 0 0 1-59.264-39.808l-2.56-7.36-122.112-448a64 64 0 0 1 54.272-80.384l7.488-0.448H856.32a64 64 0 0 1 63.36 73.536l-1.6 7.296-122.176 448a64 64 0 0 1-53.952 46.72L734.208 512zM384 512m-64 0a64 64 0 1 1 128 0 64 64 0 1 1-128 0ZM640 512m-64 0a64 64 0 1 1 128 0 64 64 0 1 1-128 0ZM512 864a160 160 0 0 0 159.68-149.504L672 704v-192h-64V704a96 96 0 0 1-191.552 9.216L416 704v-192h-64V704A160 160 0 0 0 512 864z"  horiz-adv-x="1088" />

    
    <glyph glyph-name="kaoheguanli-icon" unicode="&#59024;" d="M768 896a128 128 0 0 0 128-128v-768a128 128 0 0 0-128-128H256a128 128 0 0 0-128 128V768a128 128 0 0 0 128 128h512z m0-64H256a64 64 0 0 1-63.552-56.512L192 768v-768a64 64 0 0 1 56.512-63.552L256-64h512a64 64 0 0 1 63.552 56.512L832 0V768a64 64 0 0 1-56.512 63.552L768 832zM722.048 664.896a32 32 0 0 0 15.04-38.144l-2.304-5.312-166.08-303.616a32 32 0 0 0-38.72-14.848l-5.376 2.432-166.272 96a32 32 0 0 0 26.752 57.856l5.248-2.432 137.92-79.552 150.4 274.88a32 32 0 0 0 38.144 15.04l5.248-2.304zM320 128m32 0l320 0q32 0 32-32l0 0q0-32-32-32l-320 0q-32 0-32 32l0 0q0 32 32 32Z"  horiz-adv-x="1088" />

    
    <glyph glyph-name="zhandianguanli-icon" unicode="&#59025;" d="M1024 896v-640H0V896h1024z m-64-64H64v-512h896V832zM0 384h1024v-128H0zM128 640h320v-64H128zM544 320v-448h-64V320z"  horiz-adv-x="1088" />

    
    <glyph glyph-name="xianluguanli-icon" unicode="&#59026;" d="M848 832a112 112 0 1 0 0-224 112 112 0 0 0 0 224z m0-64a48 48 0 1 1 0-96 48 48 0 0 1 0 96zM176 160a112 112 0 1 0 0-224 112 112 0 0 0 0 224z m0-64a48 48 0 1 1 0-96 48 48 0 0 1 0 96zM232 752v-64a136 136 0 0 1-9.728-271.68l9.728-0.32v-64a200 200 0 0 0-11.328 399.68l11.328 0.32zM760 416v-64a136 136 0 0 0 9.728-271.68l-9.728-0.32v-64a200 200 0 0 1 11.328 399.68l-11.328 0.32zM792 416v-64h-560v64h560z m0 336v-64h-560v64h560zM232 80v-64h560v64z"  horiz-adv-x="1088" />

    
    <glyph glyph-name="zuzhijiagou-icon" unicode="&#59027;" d="M716.8 450.112a96 96 0 0 0 95.552-86.72l0.448-9.28v-115.2h-64v115.2a32 32 0 0 1-26.24 31.488l-5.76 0.512H307.2a32 32 0 0 1-31.488-26.24l-0.512-5.76v-115.2h-64v115.2a96 96 0 0 0 86.784 95.552l9.216 0.448h409.6zM597.312 896a64 64 0 0 0 64-64v-170.688a64 64 0 0 0-64-64H426.688a64 64 0 0 0-64 64V832a64 64 0 0 0 64 64h170.624z m0-64H426.688v-170.688h170.624V832zM482.112 597.312h64v-179.2h-64zM298.688 238.912a64 64 0 0 0 64-64v-170.624a64 64 0 0 0-64-64H128a64 64 0 0 0-64 64v170.624a64 64 0 0 0 64 64h170.688z m0-234.624v170.624H128v-170.624h170.688zM896 238.912a64 64 0 0 0 64-64v-170.624a64 64 0 0 0-64-64h-170.688a64 64 0 0 0-64 64v170.624a64 64 0 0 0 64 64H896z m0-64h-170.688v-170.624H896v170.624z"  horiz-adv-x="1088" />

    
    <glyph glyph-name="weilanguanli-icon1" unicode="&#59028;" d="M512 384m-118.144 0a118.144 118.144 0 1 1 236.288 0 118.144 118.144 0 1 1-236.288 0ZM897.92 298.624a32 32 0 0 0 21.12-40 426.752 426.752 0 0 0-282.368-281.92 32 32 0 0 0-18.688 61.184 362.752 362.752 0 0 1 239.936 239.552 32 32 0 0 0 40 21.12z m-730.944-23.936a362.752 362.752 0 0 1 236.8-236.096 32 32 0 1 0-19.2-61.056 426.752 426.752 0 0 0-278.656 277.824 32 32 0 0 0 61.056 19.328z m258.24 494.912a32 32 0 0 0-20.992-40.064A362.752 362.752 0 0 1 165.76 489.408a32 32 0 0 0-61.248 18.56 426.752 426.752 0 0 0 280.64 282.688 32 32 0 0 0 40.064-21.056z m213.44 21.12a426.752 426.752 0 0 0 280.832-282.624 32 32 0 0 0-61.248-18.624A362.752 362.752 0 0 1 619.648 729.6a32 32 0 1 0 19.008 61.12zM512 896a118.144 118.144 0 1 0 0-236.288A118.144 118.144 0 0 0 512 896z m0-64a54.144 54.144 0 1 1 0-108.288A54.144 54.144 0 0 1 512 832zM905.856 502.144a118.144 118.144 0 1 0 0-236.288 118.144 118.144 0 0 0 0 236.288z m0-64a54.144 54.144 0 1 1 0-108.288 54.144 54.144 0 0 1 0 108.288zM512 108.288A118.144 118.144 0 1 0 512-128a118.144 118.144 0 0 0 0 236.288z m0-64A54.144 54.144 0 1 1 512-64a54.144 54.144 0 0 1 0 108.288zM118.144 502.144a118.144 118.144 0 1 0 0-236.288 118.144 118.144 0 0 0 0 236.288z m0-64a54.144 54.144 0 1 1 0-108.288 54.144 54.144 0 0 1 0 108.288z"  horiz-adv-x="1088" />

    
    <glyph glyph-name="chezaishebeiguanli-icon" unicode="&#59029;" d="M531.392 636.096l444.224-111.936a64 64 0 0 0 48.384-62.08v-412.16a64 64 0 0 0-48.448-62.08l-447.104-112a64 64 0 0 0-31.04 0L48.512-12.16A64 64 0 0 0 0 50.048V461.952a64 64 0 0 0 48.64 62.08L500.288 636.16a64 64 0 0 0 31.04-0.064zM960 462.08L515.712 574.016 64 461.952v-411.968l448.896-112L960 49.92V462.08zM192 832m32 0l576 0q32 0 32-32l0 0q0-32-32-32l-576 0q-32 0-32 32l0 0q0 32 32 32ZM512 384a128 128 0 1 0 0-256 128 128 0 0 0 0 256z m0-64a64 64 0 1 1 0-128 64 64 0 0 1 0 128zM512 832a32 32 0 0 0 31.488-26.24l0.512-5.76v-187.264a32 32 0 0 0-63.488-5.76l-0.512 5.76V800A32 32 0 0 0 512 832z"  horiz-adv-x="1088" />

    
    <glyph glyph-name="cheliangbaozhan-icon" unicode="&#59016;" d="M800 832a160 160 0 1 0 0-320 160 160 0 0 0 0 320z m0-64a96 96 0 1 1 0-192 96 96 0 0 1 0 192zM224 256a160 160 0 1 0 0-320 160 160 0 0 0 0 320z m0-64a96 96 0 1 1 0-192 96 96 0 0 1 0 192zM681.408 598.72a32 32 0 0 0 48.896-40.96l-3.712-4.48-385.024-382.72a32 32 0 0 0-48.832 40.96l3.712 4.352 384.96 382.848z"  horiz-adv-x="1024" />

    
    <glyph glyph-name="ditujiankong-icon3" unicode="&#59017;" d="M519.232 832c123.712 0 224-104.192 224-232.704 0-85.76-74.688-221.44-224-407.296l-30.912 39.04C359.68 396.992 295.232 519.68 295.232 599.296 295.232 727.808 395.52 832 519.232 832z m0-64c-87.808 0-160-75.008-160-168.704 0-54.272 46.656-148.864 140.8-277.568l19.136-25.6 6.016 7.872c98.752 131.968 149.696 230.08 153.728 288l0.32 7.296C679.232 692.992 607.04 768 519.232 768zM519.232 608m-96 0a96 96 0 1 1 192 0 96 96 0 1 1-192 0ZM297.6 416a32 32 0 0 0 5.76-63.488l-5.76-0.512H213.376a32 32 0 0 1-28.032-16.576l-2.304-5.312-85.312-256a32 32 0 0 1 24.576-41.6L128 32h782.4a32 32 0 0 1 31.68 36.48l-1.28 5.632-85.376 256a32 32 0 0 1-24.576 21.376l-5.76 0.512h-77.632a32 32 0 0 0-5.76 63.488l5.76 0.512h77.632a96 96 0 0 0 87.936-57.472l3.136-8.192 85.312-256a96 96 0 0 0-80.768-125.76l-10.24-0.576H128a96 96 0 0 0-93.824 116.48l2.752 9.856 85.312 256a96 96 0 0 0 82.304 65.28l8.768 0.384h84.352z"  horiz-adv-x="1024" />

    
    <glyph glyph-name="shipinhuifang-icon" unicode="&#59018;" d="M609.1424 847.36a482.56 482.56 0 0 0 315.904-268.736 28.416 28.416 0 1 0-51.84-23.36 426.688 426.688 0 1 1 22.976-285.376 28.416 28.416 0 0 0 54.912-14.72A483.584 483.584 0 1 0 609.1424 847.424zM645.5584 361.088L466.4224 215.04a23.936 23.936 0 0 0-34.048 3.84 24.96 24.96 0 0 0-5.248 15.424V526.336c0 13.632 10.816 24.64 24.192 24.64 5.504 0 10.88-1.92 15.104-5.376l179.2-145.984a24.96 24.96 0 0 0 0-38.528zM942.5824 600.128a28.48 28.48 0 0 0 38.4-30.4l-1.024-4.48-27.008-88.448a28.48 28.48 0 0 0-37.44-18.24l-4.416 2.176-79.232 47.68a28.48 28.48 0 0 0-0.256 48.64l4.736 2.24 106.24 40.832z"  horiz-adv-x="1024" />

    
    <glyph glyph-name="monixianlu-icon" unicode="&#59019;" d="M810.368 844.224l1.728-5.504 179.2-836.288a32 32 0 0 0-60.864-18.944l-1.728 5.568-179.2 836.224a32 32 0 0 0 58.24 23.936l2.624-4.992zM244.16 864l5.76-0.704a32 32 0 0 0 25.28-32.256l-0.704-5.76-179.2-836.224a32 32 0 0 0-63.296 7.68l0.704 5.76L211.904 838.656a32 32 0 0 0 26.688 24.96L244.16 864zM480 802.112v-128a32 32 0 0 1 64 0v128a32 32 0 1 1-64 0z m0-256v-128a32 32 0 0 1 64 0v128a32 32 0 1 1-64 0z m0-256v-128a32 32 0 0 1 64 0v128a32 32 0 1 1-64 0z m0-256v-8.512a32 32 0 1 1 64 0v8.512a32 32 0 1 1-64 0z"  horiz-adv-x="1024" />

    
    <glyph glyph-name="hangcheguiji-icon" unicode="&#59020;" d="M480 832C603.712 832 704 724.608 704 592.128 704 503.808 629.312 370.432 480 192l-30.848 37.568C320.384 389.248 256 510.08 256 592.128 256 724.608 356.288 832 480 832z m0-64C392.64 768 320 690.24 320 592.128c0-56.128 46.336-148.992 140.288-272.96l19.648-25.472 6.72 8.384c98.432 127.04 149.056 223.104 153.088 282.496L640 592.128C640 690.24 567.36 768 480 768zM480 608m-96 0a96 96 0 1 1 192 0 96 96 0 1 1-192 0ZM280.448 328a32 32 0 0 0 5.76-63.488l-5.76-0.512c-31.552 0-56.448-23.68-56.448-52.032 0-28.288 24.96-51.968 56.448-51.968a32 32 0 0 0 0-64c-66.176 0-120.448 51.584-120.448 116.032 0 64.384 54.272 115.968 120.448 115.968zM730.944 160a32 32 0 0 1-5.76-63.488l5.76-0.512c31.552 0 56.448-23.68 56.448-52.032 0-28.288-24.96-51.968-56.448-51.968a32 32 0 1 1 0-64c66.176 0 120.448 51.584 120.448 116.032 0 64.384-54.272 115.968-120.448 115.968zM730.944 160a32 32 0 0 0 5.76-63.488l-5.76-0.512h-450.56a32 32 0 0 0-5.76 63.488l5.76 0.512h450.56z m-450.56 168h67.392a32 32 0 0 0 5.76-63.488l-5.76-0.512H280.448a32 32 0 1 0 0 64zM347.776-8a32 32 0 0 1-5.76-63.488l5.76-0.512h383.168a32 32 0 0 1 5.76 63.488l-5.76 0.512H347.776z"  horiz-adv-x="1024" />

    
    <glyph glyph-name="shipinjiankong-icon1" unicode="&#59021;" d="M512 832a320 320 0 1 0 0-640A320 320 0 0 0 512 832z m0-64a256 256 0 1 1 0-512 256 256 0 0 1 0 512zM512 640a128 128 0 1 0 0-256 128 128 0 0 0 0 256z m0-64a64 64 0 1 1 0-128 64 64 0 0 1 0 128zM534.272 224a480 480 0 0 0 433.92-274.56 32 32 0 0 0-57.792-27.52 416 416 0 0 1-376.128 238.08 416 416 0 0 1-377.28-240.448 32 32 0 0 0-57.984 27.008 480 480 0 0 0 435.2 277.44z"  horiz-adv-x="1024" />

    
    <glyph glyph-name="baobiaozhongxin-icon" unicode="&#59001;" d="M512 864A480 480 0 1 1 992 384l-0.512 5.76A32 32 0 0 1 960 416H544V832A32 32 0 0 1 512 864z m-32-65.216V384l0.512-5.76A32 32 0 0 1 512 352h414.72l-1.088-12.352a416 416 0 1 0-457.984 457.984l12.352 1.152zM624 864a368 368 0 0 0 368-368 32 32 0 1 0-64 0A304 304 0 0 1 624 800a32 32 0 0 0 0 64z"  horiz-adv-x="1024" />

    
    <glyph glyph-name="baojingzhongxin-icon" unicode="&#59002;" d="M512 576a256 256 0 0 0 256-256v-384H256V320a256 256 0 0 0 256 256z m0-64a192 192 0 0 1-191.68-180.736L320 320v-320h384V320a192 192 0 0 1-180.736 191.68L512 512zM0 0m32 0l960 0q32 0 32-32l0 0q0-32-32-32l-960 0q-32 0-32 32l0 0q0 32 32 32ZM512 819.392a32 32 0 0 0 31.488-26.24l0.512-5.76v-128a32 32 0 0 0-63.488-5.76l-0.512 5.76v128a32 32 0 0 0 32 32zM512 819.392a32 32 0 0 0 31.488-26.24l0.512-5.76v-128a32 32 0 0 0-63.488-5.76l-0.512 5.76v128a32 32 0 0 0 32 32zM216.512 395.904a32 32 0 0 0 5.76-63.488l-5.76-0.512h-128a32 32 0 0 0-5.76 63.488l5.76 0.512h128zM189.888 685.952a32 32 0 0 0 40.832 3.712l4.48-3.712 90.496-90.496a32 32 0 0 0-40.832-48.96l-4.48 3.712-90.496 90.496a32 32 0 0 0 0 45.248zM935.488 395.904a32 32 0 0 0 5.76-63.488l-5.76-0.512h-128a32 32 0 0 0-5.76 63.488l5.76 0.512h128zM788.864 685.952a32 32 0 0 0 48.896-40.832l-3.648-4.416-90.56-90.496a32 32 0 0 0-48.96 40.832l3.712 4.48 90.56 90.432zM400.32 320a32 32 0 0 0 31.488-26.24l0.512-5.76v-213.952a32 32 0 0 0-63.488-5.76l-0.512 5.76V288a32 32 0 0 0 32 32z"  horiz-adv-x="1024" />

    
    <glyph glyph-name="daohanglan-zhankai" unicode="&#59003;" d="M1356.322133 345.2928a52.770133 52.770133 0 0 0-14.1312-25.463467l-424.891733-424.686933a53.0432 53.0432 0 0 0-74.9568 74.888533l387.4816 387.4816-387.4816 387.345067a52.974933 52.974933 0 1 0 75.025067 74.9568l424.823466-424.7552a52.974933 52.974933 0 0 0 14.1312-49.7664zM552.277333 345.2928a52.770133 52.770133 0 0 0-14.1312-25.463467L113.2544-104.789333a53.0432 53.0432 0 0 0-74.9568 74.888533l387.549867 387.4816L38.365867 744.8576A52.974933 52.974933 0 1 0 113.322667 819.8144l424.891733-424.7552a52.974933 52.974933 0 0 0 14.062933-49.7664z"  horiz-adv-x="1365" />

    
    <glyph glyph-name="jiankongzhongxin-icon" unicode="&#59004;" d="M928 768a64 64 0 0 0 64-64v-512a64 64 0 0 0-64-64H96a64 64 0 0 0-64 64V704a64 64 0 0 0 64 64h832z m0-64H96v-512h832V704zM480 512m32 0l0 0q32 0 32-32l0-128q0-32-32-32l0 0q-32 0-32 32l0 128q0 32 32 32ZM672 576m32 0l0 0q32 0 32-32l0-192q0-32-32-32l0 0q-32 0-32 32l0 192q0 32 32 32ZM288 448m32 0l0 0q32 0 32-32l0-64q0-32-32-32l0 0q-32 0-32 32l0 64q0 32 32 32ZM288 0m32 0l384 0q32 0 32-32l0 0q0-32-32-32l-384 0q-32 0-32 32l0 0q0 32 32 32ZM480 192h64v-256H480z"  horiz-adv-x="1024" />

    
    <glyph glyph-name="jichuxinxi-icon" unicode="&#59005;" d="M928 768a64 64 0 0 0 64-64v-512a64 64 0 0 0-64-64H96a64 64 0 0 0-64 64V704a64 64 0 0 0 64 64h832z m0-64H96v-512h832V704zM288 0m32 0l384 0q32 0 32-32l0 0q0-32-32-32l-384 0q-32 0-32 32l0 0q0 32 32 32ZM480 192h64v-256H480z"  horiz-adv-x="1024" />

    
    <glyph glyph-name="tiaodujiankong-icon" unicode="&#59006;" d="M320.704 832a128 128 0 1 0 0-256 128 128 0 0 0 0 256z m0-64a64 64 0 1 1 0-128 64 64 0 0 1 0 128zM221.248 736a32 32 0 0 0 5.76-63.488l-5.76-0.512H128a32 32 0 0 0-5.76 63.488L128 736h93.248z m670.976 0a32 32 0 0 0 5.76-63.488l-5.76-0.512H416.448a32 32 0 0 0-5.76 63.488l5.76 0.512h475.776zM512.704 512a128 128 0 1 0 0-256 128 128 0 0 0 0 256z m0-64a64 64 0 1 1 0-128 64 64 0 0 1 0 128zM416.448 416a32 32 0 0 0 5.76-63.488l-5.76-0.512H128a32 32 0 0 0-5.76 63.488L128 416h288.448z m475.776 0a32 32 0 0 0 5.76-63.488l-5.76-0.512H616.96a32 32 0 0 0-5.76 63.488l5.76 0.512h275.264zM703.296 192a128 128 0 1 1 0-256 128 128 0 0 1 0 256z m0-64a64 64 0 1 0 0-128 64 64 0 0 0 0 128zM802.752 96a32 32 0 0 1-5.76-63.488l5.76-0.512H896a32 32 0 0 1 5.76 63.488L896 96h-93.248z m-670.976 0a32 32 0 0 1-5.76-63.488l5.76-0.512h475.776a32 32 0 0 1 5.76 63.488l-5.76 0.512H131.776z"  horiz-adv-x="1024" />

    
    <glyph glyph-name="renyuanguanli-icon" unicode="&#59007;" d="M512 864a256 256 0 1 1 0-512 256 256 0 0 1 0 512z m0-64a192 192 0 1 0 0-384 192 192 0 0 0 0 384zM659.52 384a298.624 298.624 0 0 0 295.552-256 224 224 0 0 0-221.696-256H290.56a224 224 0 0 0-221.696 256 298.624 298.624 0 0 0 295.552 256h295.04z m0-64h-295.04a234.624 234.624 0 0 1-232.192-201.152 160 160 0 0 1 147.84-182.528l10.496-0.32h442.752a160 160 0 0 1 158.336 182.848A234.624 234.624 0 0 1 672 319.68L659.52 320z"  horiz-adv-x="1024" />

    
    <glyph glyph-name="shouye-icon1" unicode="&#59008;" d="M535.488 881.792l452.928-224.192A64 64 0 0 0 1024 600.32V-64a64 64 0 0 0-64-64H64a64 64 0 0 0-64 64V600.64a64 64 0 0 0 35.2 57.088L478.144 881.6a64 64 0 0 0 57.28 0.192zM960 600.32L507.072 824.448 64 600.64V-64h896V600.32zM256 128m32 0l448 0q32 0 32-32l0 0q0-32-32-32l-448 0q-32 0-32 32l0 0q0 32 32 32Z"  horiz-adv-x="1024" />

    
    <glyph glyph-name="paibanguanli-icon" unicode="&#59009;" d="M864 640a64 64 0 0 0 64-64v-512a64 64 0 0 0-64-64H160a64 64 0 0 0-64 64V576a64 64 0 0 0 64 64h704z m0-64H160v-512h704V576zM480 448h64v-64H480zM480 256h64v-64H480zM672 448h64v-64H672zM672 256h64v-64H672zM288 448h64v-64H288zM288 256h64v-64H288zM96 768m32 0l768 0q32 0 32-32l0 0q0-32-32-32l-768 0q-32 0-32 32l0 0q0 32 32 32ZM288 832m32 0l0 0q32 0 32-32l0-192q0-32-32-32l0 0q-32 0-32 32l0 192q0 32 32 32ZM672 832m32 0l0 0q32 0 32-32l0-192q0-32-32-32l0 0q-32 0-32 32l0 192q0 32 32 32Z"  horiz-adv-x="1024" />

    
    <glyph glyph-name="keliujiankong-icon" unicode="&#59010;" d="M928 768a64 64 0 0 0 64-64v-512a64 64 0 0 0-64-64H96a64 64 0 0 0-64 64V704a64 64 0 0 0 64 64h832z m0-64H96v-512h832V704zM777.856 594.752a32 32 0 0 0 47.936-42.048l-3.84-4.352-192.704-183.04a32 32 0 0 0-35.264-5.952l-4.864 2.688L416.768 480 244.736 357.888a32 32 0 0 0-40.896 3.2l-3.712 4.416a32 32 0 0 0 3.2 40.832l4.352 3.776 190.208 134.912a32 32 0 0 0 31.68 3.072l4.928-2.752 169.344-115.84 174.08 165.248zM288 0m32 0l384 0q32 0 32-32l0 0q0-32-32-32l-384 0q-32 0-32 32l0 0q0 32 32 32ZM480 192h64v-256H480z"  horiz-adv-x="1024" />

    
    <glyph glyph-name="xiaoxi-icon" unicode="&#59013;" d="M511.658667 867.555556a117.134222 117.134222 0 1 1 0-234.268445 117.134222 117.134222 0 0 1 0 234.268445z m0-56.888889a60.245333 60.245333 0 1 0 0-120.433778 60.245333 60.245333 0 0 0 0 120.433778zM233.528889 423.594667l-0.227556-12.8c0.227556-62.520889-18.204444-120.206222-53.76-164.977778L103.537778 150.186667c-35.84-45.056-16.497778-114.062222 38.912-130.048 8.078222-2.332444 16.497778-3.584 25.144889-3.584H856.746667c69.233778 1.137778 103.651556 84.138667 59.335111 136.248889l-67.697778 78.961777c-36.636444 42.666667-56.547556 98.417778-58.424889 159.402667l-0.056889 15.36a288.142222 288.142222 0 0 1-2.787555 45.112889c-17.464889 124.416-119.751111 223.345778-244.622223 236.885333a278.414222 278.414222 0 0 1-309.020444-264.931555zM536.462222 631.978667c98.986667-10.752 180.508444-89.656889 194.389334-188.188445 1.137778-8.192 1.820444-16.270222 2.104888-24.234666l0.113778-11.946667c-1.536-80.384 23.04-155.534222 72.192-212.878222l67.640889-78.848c13.767111-16.213333 3.072-42.097778-16.554667-42.382223H167.537778a33.166222 33.166222 0 0 0-9.329778 1.251556c-15.473778 4.551111-21.447111 25.827556-10.24 39.992889L224.142222 210.488889c40.846222 51.370667 63.089778 115.655111 65.820445 184.604444l0.284444 16.782223a221.525333 221.525333 0 0 0 246.328889 220.16zM697.457778-48.924444a28.444444 28.444444 0 0 0 5.12-56.376889l-5.12-0.455111H349.013333a28.444444 28.444444 0 0 0-5.12 56.433777l5.12 0.455111h348.444445z"  horiz-adv-x="1024" />

    
    <glyph glyph-name="xitongguanliicon" unicode="&#59014;" d="M544 845.504l351.68-203.008a64 64 0 0 0 32-55.424v-406.144a64 64 0 0 0-32-55.424L544-77.44a64 64 0 0 0-64 0L128.32 125.44a64 64 0 0 0-32 55.424V587.072a64 64 0 0 0 32 55.424L480 845.44a64 64 0 0 0 64 0z m319.68-258.432L512 790.08 160.32 587.072v-406.144L512-22.08l351.68 203.008V587.072zM512 576a192 192 0 1 0 0-384 192 192 0 0 0 0 384z m0-64a128 128 0 1 1 0-256 128 128 0 0 1 0 256z"  horiz-adv-x="1024" />

    
    <glyph glyph-name="yuanjiao-youjiantou1" unicode="&#59015;" d="M788.852364 381.393455a55.296 55.296 0 0 0-14.894546-26.717091l-445.067636-445.067637a55.575273 55.575273 0 0 0-78.568727 78.568728L656.290909 394.146909 250.414545 800.023273a55.575273 55.575273 0 0 0 78.475637 78.661818l445.160727-445.160727a55.482182 55.482182 0 0 0 14.801455-52.130909z"  horiz-adv-x="1024" />

    
    <glyph glyph-name="ziyuanldpi" unicode="&#58903;" d="M853.363584 763.496331a72.804214 72.804214 0 0 1-123.767163-52.419033 72.804214 72.804214 0 0 1 26.209517-56.059245 364.021068 364.021068 0 0 0 110.662405-350.188267 358.196731 358.196731 0 0 0-263.551253-270.831674A364.021068 364.021068 0 0 0 147.162713 386.370505a364.021068 364.021068 0 0 0 119.39891 267.191464A78.628551 78.628551 0 0 1 292.77114 709.621213a72.804214 72.804214 0 0 1-123.039121 53.875118 513.997748 513.997748 0 0 1-128.863458-582.433708 475.411514 475.411514 0 0 1 274.471885-267.919506A509.629495 509.629495 0 0 1 853.363584 763.496331zM511.183781 459.174719a72.804214 72.804214 0 0 1 72.804213 72.804213V823.195786a72.804214 72.804214 0 0 1-145.608427 0v-291.216854a72.804214 72.804214 0 0 1 72.804214-72.804213z"  horiz-adv-x="1030" />

    
    <glyph glyph-name="shipin" unicode="&#59265;" d="M908.8-66.40128a28.20608 28.20608 0 0 0-39.424-4.75648c-104.704 77.32736-225.70496 122.51648-354.816 122.51648s-255.19616-45.17376-359.936-122.51648a27.93984 27.93984 0 0 0-16.58368-5.48352 27.56096 27.56096 0 0 0-22.84032 10.24c-9.18016 12.416-2.16064 26.66496 10.24 35.84 80.4608 59.392 169.12896 101.14048 263.68 120.75008a385.06496 385.06496 0 0 0-263.68 365.64992c0 213.57056 172.88704 389.12 386.56 389.12s386.56-175.54944 386.56-389.12a385.06496 385.06496 0 0 0-263.71584-365.6448c94.6176-19.60448 183.296-61.3632 263.71584-120.7552 12.40064-9.15968 19.42016-23.44448 10.24-35.84z m-61.44 522.24c0 182.784-149.94944 337.92-332.8 337.92s-337.92-155.136-337.92-337.92 155.06432-332.8 337.92-332.8a334.0544 334.0544 0 0 1 332.8 332.8z m-471.04 0a137.15968 137.15968 0 0 0 138.24 138.24c77.26592 0 133.12-61.04064 133.12-138.24s-55.85408-133.12-133.12-133.12-138.24 55.9104-138.24 133.12z m220.16 0c0 46.40768-35.456 87.04-81.92 87.04h-5.12c-46.39232 0-81.92-40.63232-81.92-87.04a80.46592 80.46592 0 0 1 81.92-81.92c46.464 0 87.04 35.49696 87.04 81.92z"  horiz-adv-x="1024" />

    
    <glyph glyph-name="quanping" unicode="&#58965;" d="M868.6 800H720c-7.6 0-15.2-2.9-21-8.7-5.8-5.8-8.7-13.4-8.7-21s2.9-15.2 8.7-21c5.8-5.8 13.4-8.7 21-8.7h106.5L580.1 494.2c-11.6-11.6-11.6-30.4 0-42 11.6-11.6 30.4-11.6 42 0l246.4 246.4V592c0-7.6 2.9-15.2 8.7-21 5.8-5.8 13.4-8.7 21-8.7s15.2 2.9 21 8.7c5.8 5.8 8.7 13.4 8.7 21V740.6c0.1 32.8-26.5 59.4-59.3 59.4zM898.3 205.7c-7.6 0-15.2-2.9-21-8.7-5.8-5.8-8.7-13.4-8.7-21v-106.5L622.2 315.9c-11.6 11.6-30.4 11.6-42 0s-11.6-30.4 0-42l246.4-246.4H720c-7.6 0-15.2-2.9-21-8.7-5.8-5.8-8.7-13.4-8.7-21s2.9-15.2 8.7-21c5.8-5.8 13.4-8.7 21-8.7h148.6c32.8 0 59.4 26.6 59.4 59.4V176c0 7.6-2.9 15.2-8.7 21-5.8 5.8-13.4 8.7-21 8.7zM401.8 315.9L155.4 69.5V176c0 7.6-2.9 15.2-8.7 21-5.8 5.8-13.4 8.7-21 8.7s-15.2-2.9-21-8.7c-5.8-5.8-8.7-13.4-8.7-21v-148.6c0-32.8 26.6-59.4 59.4-59.4H304c7.6 0 15.2 2.9 21 8.7 5.8 5.8 8.7 13.4 8.7 21s-2.9 15.2-8.7 21c-5.8 5.8-13.4 8.7-21 8.7H197.5l246.4 246.4c11.6 11.6 11.6 30.4 0 42-11.6 11.7-30.5 11.7-42.1 0.1zM197.5 740.6H304c7.6 0 15.2 2.9 21 8.7 5.8 5.8 8.7 13.4 8.7 21s-2.9 15.2-8.7 21c-5.8 5.8-13.4 8.7-21 8.7H155.4C122.6 800 96 773.4 96 740.6V592c0-7.6 2.9-15.2 8.7-21 5.8-5.8 13.4-8.7 21-8.7s15.2 2.9 21 8.7c5.8 5.8 8.7 13.4 8.7 21V698.5l246.4-246.4c11.6-11.6 30.4-11.6 42 0 11.6 11.6 11.6 30.4 0 42L197.5 740.6z"  horiz-adv-x="1024" />

    
    <glyph glyph-name="bayonet-camera" unicode="&#59748;" d="M512 832c51.9 0 102.2-10.1 149.5-30.2 45.7-19.3 86.8-47 122.1-82.3s63-76.4 82.3-122.1c20-47.3 30.2-97.6 30.2-149.5S886 345.70000000000005 865.9 298.4c-19.3-45.7-47-86.8-82.3-122.1s-76.4-63-122.1-82.3c-47.3-20-97.6-30.2-149.5-30.2S409.8 73.89999999999998 362.5 94c-45.7 19.3-86.8 47-122.1 82.3s-63 76.4-82.3 122.1c-20 47.3-30.2 97.6-30.2 149.5s10.1 102.2 30.2 149.5c19.3 45.7 47 86.8 82.3 122.1s76.4 63 122.1 82.3C409.8 821.9 460.1 832 512 832m0 64C264.6 896 64 695.4 64 448s200.6-448 448-448 448 200.6 448 448S759.4 896 512 896zM512 608c42.7 0 82.9-16.6 113.1-46.9C655.4 530.9 672 490.7 672 448s-16.6-82.9-46.9-113.1C594.9 304.6 554.7 288 512 288s-82.9 16.6-113.1 46.9C368.6 365.1 352 405.3 352 448s16.6 82.9 46.9 113.1S469.3 608 512 608m0 64c-123.7 0-224-100.3-224-224s100.3-224 224-224 224 100.3 224 224-100.3 224-224 224zM818.7 13.100000000000023c19-13 18.4-41.2-1.1-53.5C729-95.89999999999998 624.3-128 512-128s-217 32.1-305.6 87.7c-19.5 12.2-20.1 40.4-1.1 53.5 10.5 7.2 24.3 7.5 35.2 0.7 23-14.4 47.1-27 72.3-37.6 63-26.8 130-40.3 199.2-40.3s136.2 13.5 199.3 40.2c25.2 10.7 49.3 23.2 72.3 37.6 10.8 6.8 24.6 6.6 35.1-0.7zM512 736m-48 0a48 48 0 1 1 96 0 48 48 0 1 1-96 0Z"  horiz-adv-x="1024" />

    
    <glyph glyph-name="bus" unicode="&#61272;" d="M976 640h-16V736c0 89.6-198.4 160-448 160S64 825.6 64 736v-96h-16c-26.5 0-48-21.48-48-48v-160c0-26.5 21.5-48 48-48h16v-320c0-35.34 28.66-64 64-64v-64c0-35.34 28.66-64 64-64h64c35.34 0 64 28.66 64 64v64h384v-64c0-35.34 28.66-64 64-64h64c35.34 0 64 28.66 64 64v64h12.8c32 0 51.2 25.6 51.2 51.2V384h16c26.5 0 48 21.5 48 48v160c0 26.52-21.5 48-48 48zM224 96c-35.34 0-64 28.66-64 64s28.66 64 64 64 64-28.66 64-64-28.66-64-64-64z m32 224c-35.34 0-64 28.66-64 64V640c0 35.34 28.66 64 64 64h512c35.34 0 64-28.66 64-64v-256c0-35.34-28.66-64-64-64H256z m544-224c-35.34 0-64 28.66-64 64s28.66 64 64 64 64-28.66 64-64-28.66-64-64-64z"  horiz-adv-x="1024" />

    
    <glyph glyph-name="chedui-icon" unicode="&#58999;" d="M797.257143 596.114286a73.142857 73.142857 0 0 0 73.142857-73.142857V310.857143a73.142857 73.142857 0 0 0-73.142857-73.142857h-58.514286a73.142857 73.142857 0 0 0-73.142857 73.142857V522.971429a73.142857 73.142857 0 0 0 73.142857 73.142857h58.514286z m0-73.142857h-58.514286V310.857143h58.514286V522.971429zM921.6 735.085714c73.142857 0 133.046857-56.466286 138.532571-128.146285l0.438858-10.825143v-460.8a138.971429 138.971429 0 0 0-128.146286-138.532572l-10.825143-0.438857h-64.146286a36.571429 36.571429 0 0 0-6.582857 72.557714l6.582857 0.585143h64.146286a65.828571 65.828571 0 0 1 65.316571 57.563429l0.512 8.265143V596.114286a65.828571 65.828571 0 0 1-57.563428 65.316571L921.6 661.942857H197.485714a109.714286 109.714286 0 0 1-109.202285-99.181714L87.771429 552.228571v-416.914285a65.828571 65.828571 0 0 1 57.563428-65.316572l8.265143-0.512h62.902857a36.571429 36.571429 0 0 0 6.582857-72.557714l-6.582857-0.585143H153.6a138.971429 138.971429 0 0 0-138.532571 128.146286L14.628571 135.314286V552.228571a182.857143 182.857143 0 0 0 170.861715 182.491429L197.485714 735.085714h724.114286z m-269.238857-665.6a36.571429 36.571429 0 0 0 6.582857-72.557714l-6.582857-0.585143h-225.28a36.571429 36.571429 0 0 0-6.582857 72.557714l6.582857 0.585143h225.28zM332.8 186.514286a128 128 0 1 0 0-256 128 128 0 0 0 0 256z m0-73.142857a54.857143 54.857143 0 1 1 0-109.714286 54.857143 54.857143 0 0 1 0 109.714286zM742.4 186.514286a128 128 0 1 0 0-256 128 128 0 0 0 0 256z m0-73.142857a54.857143 54.857143 0 1 1 0-109.714286 54.857143 54.857143 0 0 1 0 109.714286z"  horiz-adv-x="1170" />

    
    <glyph glyph-name="fengongsi-icon" unicode="&#59000;" d="M0-37.703673m35.91168 0l1005.527032 0q35.91168 0 35.911679-35.911679l0 0q0-35.91168-35.911679-35.91168l-1005.527032 0q-35.91168 0-35.91168 35.91168l0 0q0 35.91168 35.91168 35.911679ZM510.376792 811.966669A71.823359 71.823359 0 0 1 502.763516 779.717981V-109.527032h430.940157V636.143086a71.823359 71.823359 0 0 1-39.718318 64.210083l-287.293438 143.646719a71.823359 71.823359 0 0 1-96.315125-32.105042zM574.586875 779.717981l287.293438-143.646719L861.952136-37.703673h-287.293437L574.586875 779.789804zM287.293438 177.766406m35.911679 0l71.82336 0q35.91168 0 35.91168-35.91168l0 0q0-35.91168-35.91168-35.91168l-71.82336 0q-35.91168 0-35.911679 35.91168l0 0q0 35.91168 35.911679 35.91168ZM646.410235 177.766406m35.91168 0l71.823359 0q35.91168 0 35.91168-35.91168l0 0q0-35.91168-35.91168-35.91168l-71.823359 0q-35.91168 0-35.91168 35.91168l0 0q0 35.91168 35.91168 35.91168ZM646.410235 393.236484m35.91168 0l71.823359 0q35.91168 0 35.91168-35.91168l0 0q0-35.91168-35.91168-35.911679l-71.823359 0q-35.91168 0-35.91168 35.911679l0 0q0 35.91168 35.91168 35.91168ZM502.763516 689.938782a71.823359 71.823359 0 0 1-39.861965-11.994501l-287.293437-191.5529A71.823359 71.823359 0 0 1 143.646719 426.634346V-109.527032h430.940156V618.115422a71.823359 71.823359 0 0 1-71.823359 71.82336z m0-71.82336L502.835339-37.703673h-287.293437L215.470078 426.634346 502.763516 618.043599z"  horiz-adv-x="1149" />

    
    <glyph glyph-name="ditujiankong-icon2" unicode="&#58997;" d="M512 384m-512 0a512 512 0 1 1 1024 0 512 512 0 1 1-1024 0ZM496.128 657.066667c79.189333 0 143.36-66.696533 143.36-148.957867 0-54.818133-47.786667-141.7216-143.36-260.642133l-17.885867 22.6304c-83.626667 107.383467-125.474133 186.709333-125.474133 238.011733 0 82.261333 64.170667 148.957867 143.36 148.957867z m0-34.133334c-60.0064 0-109.226667-51.131733-109.226667-114.824533 0-38.673067 34.133333-105.710933 102.946134-197.085867l6.280533-8.192 6.280533 8.192c66.286933 87.9616 100.352 153.3952 102.8096 192.682667l0.136534 4.437333c0 63.658667-49.186133 114.7904-109.226667 114.7904zM496.128 513.706667m-61.44 0a61.44 61.44 0 1 1 122.88 0 61.44 61.44 0 1 1-122.88 0ZM354.338133 387.413333a17.066667 17.066667 0 0 0 3.072-33.860266l-3.072-0.273067H300.373333a23.893333 23.893333 0 0 1-21.367466-13.2096l-1.297067-3.140267-54.613333-163.84a23.893333 23.893333 0 0 1 19.421866-31.232l3.242667-0.2048h500.736a23.893333 23.893333 0 0 1 23.552 27.989334l-0.887467 3.447466-54.613333 163.84a23.893333 23.893333 0 0 1-19.285333 16.110934L691.882667 353.28h-49.664a17.066667 17.066667 0 0 0-3.072 33.860267l3.072 0.273066h49.664a58.026667 58.026667 0 0 0 53.282133-35.054933l1.774933-4.608 54.613334-163.84a58.026667 58.026667 0 0 0-48.810667-76.049067l-6.2464-0.341333H245.76a58.026667 58.026667 0 0 0-56.695467 70.382933l1.6384 6.007467 54.613334 163.84a58.026667 58.026667 0 0 0 50.107733 39.458133L300.373333 387.413333h53.9648z"  horiz-adv-x="1024" />

    
    <glyph glyph-name="quanping-icon" unicode="&#58998;" d="M512 384m-512 0a512 512 0 1 1 1024 0 512 512 0 1 1-1024 0ZM785.066667 321.53599999999994a17.066667 17.066667 0 0 0 16.7936-13.994667l0.273066-3.072V179.20000000000005a85.333333 85.333333 0 0 0-79.735466-85.162667L716.8 93.866667h-128a17.066667 17.066667 0 0 0-3.072 33.860266l3.072 0.273067H716.8a51.2 51.2 0 0 1 50.961067 46.2848L768 179.20000000000005v125.269333a17.066667 17.066667 0 0 0 17.066667 17.066667z m-327.543467-29.457067a17.066667 17.066667 0 0 0-0.3072-24.132266l-138.24-134.826667c5.358933-2.594133 11.264-4.3008 17.408-4.881067L341.333333 128h99.498667a17.066667 17.066667 0 0 0 3.072-33.860267l-3.072-0.273066H341.333333a85.333333 85.333333 0 0 0-85.162666 79.735466L256 179.20000000000005v95.744a17.066667 17.066667 0 0 0 33.860267 3.072l0.273066-3.072V179.20000000000005c0-7.7824 1.706667-15.1552 4.846934-21.777067l138.410666 134.9632a17.066667 17.066667 0 0 0 24.132267-0.3072zM471.176533 640a17.066667 17.066667 0 0 0 3.072-33.860267l-3.072-0.273066H341.333333a51.2 51.2 0 0 1-50.961066-46.2848L290.133333 554.666667v-139.127467a17.066667 17.066667 0 0 0-33.860266-3.072L256 415.5392V554.666667A85.333333 85.333333 0 0 0 335.735467 639.829333L341.333333 640h129.8432zM716.8 640a84.992 84.992 0 0 0 51.882667-17.578667 17.134933 17.134933 0 0 0 13.038933-12.424533c11.605333-13.550933 19.012267-30.788267 20.241067-49.732267L802.133333 554.666667v-108.544a17.066667 17.066667 0 0 0-33.860266-3.072l-0.273067 3.072V554.666667c0 8.567467-2.116267 16.657067-5.802667 23.7568L626.4832 441.685333a17.066667 17.066667 0 0 0-26.2144 21.674667l1.979733 2.389333 134.826667 135.918934a50.858667 50.858667 0 0 1-15.36 3.959466L716.8 605.866667h-132.096a17.066667 17.066667 0 0 0-3.072 33.860266L584.704 640H716.8z"  horiz-adv-x="1041" />

    
    <glyph glyph-name="cheliangBIM-icon" unicode="&#58996;" d="M512 384m-512 0a512 512 0 1 1 1024 0 512 512 0 1 1-1024 0ZM520.2944 671.914667L264.635733 527.36a17.066667 17.066667 0 0 1 0-29.696l255.5904-145.749333a17.066667 17.066667 0 0 1 16.896-0.068267l256.341334 145.2032a17.066667 17.066667 0 0 1 0 29.696l-256.341334 145.169067a17.066667 17.066667 0 0 1-16.827733 0z m8.362667-34.440534l221.730133-125.576533-221.696-125.5424-221.0816 126.088533 221.047467 125.0304zM256 511.8976v-293.2736c0-6.212267 3.413333-11.946667 8.874667-14.9504l256-140.288a17.066667 17.066667 0 0 1 25.258666 14.984533l-0.341333 288.3584a17.066667 17.066667 0 0 1-8.669867 14.813867l-255.658666 145.169067a17.066667 17.066667 0 0 1-25.463467-14.813867z m34.133333-29.320533l221.4912-125.781334 0.3072-249.617066L290.133333 228.7616v253.815467zM776.6016 526.7456l-256-145.2032a17.066667 17.066667 0 0 1-8.635733-14.848v-288.836267a17.066667 17.066667 0 0 1 25.736533-14.711466l256 150.357333a17.066667 17.066667 0 0 1 8.3968 14.711467v283.648a17.066667 17.066667 0 0 1-25.4976 14.882133z m-8.669867-44.168533v-244.565334l-221.832533-130.321066v249.070933l221.832533 125.815467z"  horiz-adv-x="1024" />

    
    <glyph glyph-name="1ping" unicode="&#58985;" d="M20.48 875.52h983.04v-983.04H20.48z"  horiz-adv-x="1024" />

    
    <glyph glyph-name="4ping" unicode="&#58986;" d="M20.48 875.52H491.52V404.48H20.48zM20.48 363.52H491.52v-471.04H20.48zM532.48 875.52h471.04V404.48H532.48zM532.48 363.52h471.04v-471.04H532.48z"  horiz-adv-x="1024" />

    
    <glyph glyph-name="6ping" unicode="&#58987;" d="M20.48 875.52h641.72032v-641.72032H20.48zM703.16032 192.83968H1003.52V-107.52h-300.35968zM361.79968 192.83968h300.35968V-107.52H361.79968zM20.48 192.83968h300.35968V-107.52H20.48zM703.16032 875.52H1003.52v-300.35968h-300.35968zM703.16032 534.20032H1003.52v-300.35968h-300.35968z"  horiz-adv-x="1024" />

    
    <glyph glyph-name="9ping" unicode="&#58988;" d="M20.48 875.52h300.35968v-300.35968H20.48zM20.48 534.20032h300.35968v-300.35968H20.48zM20.48 192.83968h300.35968V-107.52H20.48zM361.79968 875.52h300.35968v-300.35968H361.79968zM361.79968 534.20032h300.35968v-300.35968H361.79968zM361.79968 192.83968h300.35968V-107.52H361.79968zM703.16032 875.52H1003.52v-300.35968h-300.35968zM703.16032 534.20032H1003.52v-300.35968h-300.35968zM703.16032 192.83968H1003.52V-107.52h-300.35968z"  horiz-adv-x="1024" />

    
    <glyph glyph-name="16ping" unicode="&#58989;" d="M20.48 875.52h215.04v-215.04H20.48zM20.48 619.52h215.04V404.48H20.48zM20.48 363.52h215.04v-215.04H20.48zM20.48 107.52h215.04v-215.04H20.48zM532.48 875.52h215.04v-215.04H532.48zM532.48 619.52h215.04V404.48H532.48zM532.48 363.52h215.04v-215.04H532.48zM532.48 107.52h215.04v-215.04H532.48zM276.48 875.52H491.52v-215.04H276.48zM276.48 619.52H491.52V404.48H276.48zM276.48 363.52H491.52v-215.04H276.48zM276.48 107.52H491.52v-215.04H276.48zM788.48 875.52h215.04v-215.04h-215.04zM788.48 619.52h215.04V404.48h-215.04zM788.48 363.52h215.04v-215.04h-215.04zM788.48 107.52h215.04v-215.04h-215.04z"  horiz-adv-x="1024" />

    
    <glyph glyph-name="8ping" unicode="&#58990;" d="M20.48 875.52h727.04v-727.04H20.48zM532.48 107.52h215.04v-215.04H532.48zM276.48 107.52H491.52v-215.04H276.48zM20.48 107.52h215.04v-215.04H20.48zM788.48 107.52h215.04v-215.04h-215.04zM788.48 875.52h215.04v-215.04h-215.04zM788.48 619.52h215.04V404.48h-215.04zM788.48 363.52h215.04v-215.04h-215.04z"  horiz-adv-x="1024" />

    
    <glyph glyph-name="jietu-icon" unicode="&#58991;" d="M806.4 729.6a51.2 51.2 0 0 0 51.2-51.2v-640H217.6a51.2 51.2 0 0 0-51.2 51.2V729.6h640zM716.8 384h-6.4a25.6 25.6 0 0 1-25.6-25.6V179.2a25.6 25.6 0 0 1 25.6-25.6H716.8a25.6 25.6 0 0 1 25.6 25.6v179.2a25.6 25.6 0 0 1-25.6 25.6zM166.4 870.4a25.6 25.6 0 0 0 25.1904-20.992L192 844.8v-704a76.8 76.8 0 0 1 69.4272-76.4416l7.3728-0.3584H972.8a25.6 25.6 0 0 0 4.608-50.7904l-4.608-0.4096H268.8a128 128 0 0 0-127.744 119.6032l-0.256 8.3968V844.8a25.6 25.6 0 0 0 25.6 25.6zM857.6-102.4a25.6 25.6 0 0 0-25.1904 20.992L832-76.8V627.2a76.8 76.8 0 0 1-69.4272 76.4416l-7.3728 0.3584H51.2a25.6 25.6 0 0 0-4.608 50.7904L51.2 755.2h704a128 128 0 0 0 127.744-119.6032l0.256-8.3968V-76.8a25.6 25.6 0 0 0-25.6-25.6z"  horiz-adv-x="1024" />

    
    <glyph glyph-name="guanbi-icon" unicode="&#58992;" d="M512 844.8a460.8 460.8 0 1 0 0-921.6 460.8 460.8 0 0 0 0 921.6z m184.2688-183.6032a25.6 25.6 0 1 1-28.3648-42.6496 281.6 281.6 0 1 0-312.2176-0.3072 25.6 25.6 0 1 1-28.4672 42.5984 332.8 332.8 0 1 1 369.0496 0.3584zM512 716.8a25.6 25.6 0 0 1-25.6-25.6v-256l0.4096-4.608A25.6 25.6 0 0 1 537.6 435.2V691.2l-0.4096 4.608A25.6 25.6 0 0 1 512 716.8z"  horiz-adv-x="1024" />

    
    <glyph glyph-name="shipinjiankong-icon" unicode="&#58993;" d="M511.907608 896c195.766339 0 354.458903-158.692564 354.458902-354.458903S707.673947 187.082195 511.907608 187.082195 157.448705 345.774758 157.448705 541.541097 316.141269 896 511.907608 896z m0-52.51243C345.141258 843.48757 209.961135 708.307447 209.961135 541.541097s135.180123-301.946473 301.946473-301.946472 301.946473 135.180123 301.946472 301.946472S678.673957 843.48757 511.907608 843.48757zM511.907608 685.95028c79.753253 0 144.409183-64.655929 144.409182-144.409183s-64.655929-144.409183-144.409182-144.409182-144.409183 64.655929-144.409183 144.409182 64.655929 144.409183 144.409183 144.409183z m0-52.51243a91.896753 91.896753 0 1 1 0-183.793505 91.896753 91.896753 0 0 1 0 183.793505zM512.577141 213.33841c202.737364 0 384.233451-118.769989 469.461125-301.040634a26.256215 26.256215 0 1 0-47.563134-22.252142C857.7676 54.094465 694.650864 160.825979 512.577141 160.825979c-183.1371 0-347.05465-108.00494-423.171417-273.537248a26.256215 26.256215 0 0 0-47.707543 21.950196C126.26945 93.163713 308.658247 213.33841 512.564013 213.33841z"  horiz-adv-x="1024" />

    
    </font>
</defs>
</svg>
